# MagicaVoxel @ Ephtracy

# group
o 

# material
mtllib DirtBlock1.mtl
usemtl palette

# normals
vn -1 0 0
vn 1 0 0
vn 0 0 1
vn 0 0 -1
vn 0 -1 0
vn 0 1 0

# texcoords
vt 0.369141 0.5
vt 0.373047 0.5
vt 0.982422 0.5

# verts
v -2 0 2
v -2 0 -2
v -2 3.9 2
v -2 3.9 -2
v -1.4 3.9 1.3
v -1.4 3.9 -2.38419e-07
v -1.4 4 1.3
v -1.4 4 -2.38419e-07
v -1.3 3.9 -0.9
v -1.3 3.9 -1.4
v -1.3 4 -0.9
v -1.3 4 -1.4
v 0.4 3.9 -0.5
v 0.4 3.9 -1.5
v 0.4 4 -0.5
v 0.4 4 -1.5
v 1 3.9 1.5
v 1 3.9 1.4
v 1 3.9 1.3
v 1 4 1.5
v 1 4 1.3
v 1.3 3.9 0.9
v 1.3 3.9 -2.38419e-07
v 1.3 4 0.9
v 1.3 4 -2.38419e-07
v -0.9 3.9 -0.9
v -0.9 3.9 -1.4
v -0.9 4 -0.9
v -0.9 4 -1.4
v 0.3 3.9 1.3
v 0.3 3.9 -2.38419e-07
v 0.3 4 1.3
v 0.3 4 -2.38419e-07
v 1.1 3.9 -0.5
v 1.1 3.9 -1.5
v 1.1 4 -0.5
v 1.1 4 -1.5
v 1.2 3.9 1.5
v 1.2 3.9 1.3
v 1.2 4 1.5
v 1.2 4 1.3
v 1.9 3.9 0.9
v 1.9 3.9 -2.38419e-07
v 1.9 4 0.9
v 1.9 4 -2.38419e-07
v 2 0 2
v 2 0 -2
v 2 3.9 2
v 2 3.9 -2
v -2 0 2
v -2 3.9 2
v 2 0 2
v 2 3.9 2
v 1 3.9 1.5
v 1 4 1.5
v 1.2 3.9 1.5
v 1.2 4 1.5
v -1.4 3.9 1.3
v -1.4 4 1.3
v 0.3 3.9 1.3
v 0.3 4 1.3
v 1.3 3.9 0.9
v 1.3 4 0.9
v 1.9 3.9 0.9
v 1.9 4 0.9
v 0.4 3.9 -0.5
v 0.4 4 -0.5
v 1.1 3.9 -0.5
v 1.1 4 -0.5
v -1.3 3.9 -0.9
v -1.3 4 -0.9
v -0.9 3.9 -0.9
v -0.9 4 -0.9
v 1 3.9 1.3
v 1 4 1.3
v 1.2 3.9 1.3
v 1.2 4 1.3
v -1.4 3.9 -2.38419e-07
v -1.4 4 -2.38419e-07
v 0.3 3.9 -2.38419e-07
v 0.3 4 -2.38419e-07
v 1.3 3.9 -2.38419e-07
v 1.3 4 -2.38419e-07
v 1.9 3.9 -2.38419e-07
v 1.9 4 -2.38419e-07
v -1.3 3.9 -1.4
v -1.3 4 -1.4
v -0.9 3.9 -1.4
v -0.9 4 -1.4
v 0.4 3.9 -1.5
v 0.4 4 -1.5
v 1.1 3.9 -1.5
v 1.1 4 -1.5
v -2 0 -2
v -2 3.9 -2
v 2 0 -2
v 2 3.9 -2
v -2 0 2
v 2 0 2
v -2 0 -2
v 2 0 -2
v -2 3.9 2
v 2 3.9 2
v 1 3.9 1.5
v 1.2 3.9 1.5
v 0.9 3.9 1.4
v 1 3.9 1.4
v -1.4 3.9 1.3
v 0.3 3.9 1.3
v 1 3.9 1.3
v 1.2 3.9 1.3
v 0.9 3.9 1.1
v 1.2 3.9 1.1
v 1.3 3.9 0.9
v 1.9 3.9 0.9
v -1.4 3.9 -2.38419e-07
v 0.3 3.9 -2.38419e-07
v 1.3 3.9 -2.38419e-07
v 1.9 3.9 -2.38419e-07
v 0.4 3.9 -0.5
v 1.1 3.9 -0.5
v -1.4 3.9 -0.7
v -0.9 3.9 -0.7
v -1.3 3.9 -0.9
v -0.9 3.9 -0.9
v -1.4 3.9 -1.4
v -1.3 3.9 -1.4
v -0.9 3.9 -1.4
v 0.4 3.9 -1.5
v 1.1 3.9 -1.5
v -2 3.9 -2
v 2 3.9 -2
v 1 4 1.5
v 1.2 4 1.5
v -1.4 4 1.3
v 0.3 4 1.3
v 1 4 1.3
v 1.2 4 1.3
v 1.3 4 0.9
v 1.9 4 0.9
v -1.4 4 -2.38419e-07
v 0.3 4 -2.38419e-07
v 1.3 4 -2.38419e-07
v 1.9 4 -2.38419e-07
v 0.4 4 -0.5
v 1.1 4 -0.5
v -1.3 4 -0.9
v -0.9 4 -0.9
v -1.3 4 -1.4
v -0.9 4 -1.4
v 0.4 4 -1.5
v 1.1 4 -1.5

# faces
f 3/1/1 2/1/1 1/1/1
f 4/1/1 2/1/1 3/1/1
f 7/1/1 6/1/1 5/1/1
f 8/1/1 6/1/1 7/1/1
f 11/3/1 10/3/1 9/3/1
f 12/3/1 10/3/1 11/3/1
f 15/1/1 14/1/1 13/1/1
f 16/1/1 14/1/1 15/1/1
f 20/3/1 18/3/1 17/3/1
f 20/3/1 19/3/1 18/3/1
f 21/3/1 19/3/1 20/3/1
f 24/1/1 23/1/1 22/1/1
f 25/1/1 23/1/1 24/1/1
f 26/3/2 27/3/2 28/3/2
f 28/3/2 27/3/2 29/3/2
f 30/1/2 31/1/2 32/1/2
f 32/1/2 31/1/2 33/1/2
f 34/1/2 35/1/2 36/1/2
f 36/1/2 35/1/2 37/1/2
f 38/3/2 39/3/2 40/3/2
f 40/3/2 39/3/2 41/3/2
f 42/1/2 43/1/2 44/1/2
f 44/1/2 43/1/2 45/1/2
f 46/1/2 47/1/2 48/1/2
f 48/1/2 47/1/2 49/1/2
f 52/1/3 51/1/3 50/1/3
f 53/1/3 51/1/3 52/1/3
f 56/3/3 55/3/3 54/3/3
f 57/3/3 55/3/3 56/3/3
f 60/1/3 59/1/3 58/1/3
f 61/1/3 59/1/3 60/1/3
f 64/1/3 63/1/3 62/1/3
f 65/1/3 63/1/3 64/1/3
f 68/1/3 67/1/3 66/1/3
f 69/1/3 67/1/3 68/1/3
f 72/3/3 71/3/3 70/3/3
f 73/3/3 71/3/3 72/3/3
f 74/3/4 75/3/4 76/3/4
f 76/3/4 75/3/4 77/3/4
f 78/1/4 79/1/4 80/1/4
f 80/1/4 79/1/4 81/1/4
f 82/1/4 83/1/4 84/1/4
f 84/1/4 83/1/4 85/1/4
f 86/3/4 87/3/4 88/3/4
f 88/3/4 87/3/4 89/3/4
f 90/1/4 91/1/4 92/1/4
f 92/1/4 91/1/4 93/1/4
f 94/1/4 95/1/4 96/1/4
f 96/1/4 95/1/4 97/1/4
f 100/1/5 99/1/5 98/1/5
f 101/1/5 99/1/5 100/1/5
f 102/1/6 103/1/6 104/1/6
f 104/1/6 103/1/6 105/1/6
f 102/1/6 104/1/6 106/1/6
f 106/1/6 104/1/6 107/1/6
f 102/1/6 106/1/6 108/1/6
f 108/1/6 106/1/6 109/1/6
f 106/2/6 107/2/6 110/2/6
f 105/1/6 103/1/6 111/1/6
f 106/2/6 110/2/6 112/2/6
f 110/2/6 111/2/6 112/2/6
f 109/1/6 106/1/6 112/1/6
f 111/1/6 103/1/6 113/1/6
f 112/2/6 111/2/6 113/2/6
f 112/1/6 113/1/6 114/1/6
f 113/1/6 103/1/6 114/1/6
f 114/1/6 103/1/6 115/1/6
f 102/1/6 108/1/6 116/1/6
f 109/1/6 112/1/6 117/1/6
f 112/1/6 114/1/6 117/1/6
f 117/1/6 114/1/6 118/1/6
f 115/1/6 103/1/6 119/1/6
f 117/1/6 118/1/6 120/1/6
f 118/1/6 119/1/6 120/1/6
f 116/1/6 117/1/6 120/1/6
f 120/1/6 119/1/6 121/1/6
f 102/1/6 116/1/6 122/1/6
f 116/1/6 120/1/6 122/1/6
f 122/1/6 120/1/6 123/1/6
f 122/2/6 123/2/6 124/2/6
f 123/1/6 120/1/6 125/1/6
f 124/2/6 123/2/6 125/2/6
f 102/1/6 122/1/6 126/1/6
f 122/2/6 124/2/6 126/2/6
f 126/2/6 124/2/6 127/2/6
f 125/1/6 120/1/6 128/1/6
f 126/1/6 127/1/6 129/1/6
f 127/1/6 128/1/6 129/1/6
f 128/1/6 120/1/6 129/1/6
f 121/1/6 119/1/6 130/1/6
f 126/1/6 129/1/6 131/1/6
f 129/1/6 130/1/6 131/1/6
f 102/1/6 126/1/6 131/1/6
f 130/1/6 119/1/6 132/1/6
f 131/1/6 130/1/6 132/1/6
f 119/1/6 103/1/6 132/1/6
f 133/3/6 134/3/6 137/3/6
f 137/3/6 134/3/6 138/3/6
f 135/1/6 136/1/6 141/1/6
f 141/1/6 136/1/6 142/1/6
f 139/1/6 140/1/6 143/1/6
f 143/1/6 140/1/6 144/1/6
f 147/3/6 148/3/6 149/3/6
f 149/3/6 148/3/6 150/3/6
f 145/1/6 146/1/6 151/1/6
f 151/1/6 146/1/6 152/1/6
