# MagicaVoxel @ Ephtracy

# group
o 

# material
mtllib Medkit.mtl
usemtl palette

# normals
vn -1 0 0
vn 1 0 0
vn 0 0 1
vn 0 0 -1
vn 0 -1 0
vn 0 1 0

# texcoords
vt 0.173828 0.5
vt 0.177734 0.5
vt 0.849609 0.5
vt 0.912109 0.5
vt 0.958984 0.5

# verts
v -1.5 1.3 1
v -1.5 1.3 -1
v -1.5 1.4 1
v -1.5 1.4 -1
v -1.4 0 0.9
v -1.4 0 -0.9
v -1.4 0.2 0.7
v -1.4 0.2 -0.7
v -1.4 1.2 0.7
v -1.4 1.2 -0.7
v -1.4 1.3 0.9
v -1.4 1.3 -0.9
v -1.3 0.2 0.7
v -1.3 0.2 -0.7
v -1.3 0.3 0.0999999
v -1.3 0.3 -0.1
v -1.3 0.6 0.4
v -1.3 0.6 0.0999999
v -1.3 0.6 -0.1
v -1.3 0.6 -0.4
v -1.3 0.8 0.4
v -1.3 0.8 0.0999999
v -1.3 0.8 -0.1
v -1.3 0.8 -0.4
v -1.3 1.1 0.0999999
v -1.3 1.1 -0.1
v -1.3 1.2 0.7
v -1.3 1.2 -0.7
v -1.3 1.4 0.9
v -1.3 1.4 -0.9
v -1.3 1.5 0.9
v -1.3 1.5 -0.9
v 0.9 1.4 0.9
v 0.9 1.4 -0.9
v 0.9 1.5 0.9
v 0.9 1.5 -0.9
v 1.2 0.2 0.9
v 1.2 0.2 0.8
v 1.2 0.2 -0.8
v 1.2 0.2 -0.9
v 1.2 1.2 0.9
v 1.2 1.2 0.8
v 1.2 1.2 -0.8
v 1.2 1.2 -0.9
v -1.2 0.2 0.9
v -1.2 0.2 0.8
v -1.2 0.2 -0.8
v -1.2 0.2 -0.9
v -1.2 1.2 0.9
v -1.2 1.2 0.8
v -1.2 1.2 -0.8
v -1.2 1.2 -0.9
v -1 1.4 0.9
v -1 1.4 -0.9
v -1 1.5 0.9
v -1 1.5 -0.9
v 1.2 1.4 0.9
v 1.2 1.4 -0.9
v 1.2 1.5 0.9
v 1.2 1.5 -0.9
v 1.3 0.2 0.7
v 1.3 0.2 -0.7
v 1.3 0.3 0.0999999
v 1.3 0.3 -0.1
v 1.3 0.6 0.4
v 1.3 0.6 0.0999999
v 1.3 0.6 -0.1
v 1.3 0.6 -0.4
v 1.3 0.8 0.4
v 1.3 0.8 0.0999999
v 1.3 0.8 -0.1
v 1.3 0.8 -0.4
v 1.3 1.1 0.0999999
v 1.3 1.1 -0.1
v 1.3 1.2 0.7
v 1.3 1.2 -0.7
v 1.4 0 0.9
v 1.4 0 -0.9
v 1.4 0.2 0.7
v 1.4 0.2 -0.7
v 1.4 1.2 0.7
v 1.4 1.2 -0.7
v 1.4 1.3 0.9
v 1.4 1.3 -0.9
v 1.5 1.3 1
v 1.5 1.3 -1
v 1.5 1.4 1
v 1.5 1.4 -1
v -1.5 1.3 1
v -1.5 1.4 1
v 1.5 1.3 1
v 1.5 1.4 1
v -1.4 0 0.9
v -1.4 1.3 0.9
v -1.3 1.4 0.9
v -1.3 1.5 0.9
v -1.2 0.2 0.9
v -1.2 1.2 0.9
v -1 1.4 0.9
v -1 1.5 0.9
v 0.9 1.4 0.9
v 0.9 1.5 0.9
v 1.2 0.2 0.9
v 1.2 1.2 0.9
v 1.2 1.4 0.9
v 1.2 1.5 0.9
v 1.4 0 0.9
v 1.4 1.3 0.9
v -1.2 0.2 0.8
v -1.2 1.2 0.8
v 1.2 0.2 0.8
v 1.2 1.2 0.8
v -1.4 0.2 -0.7
v -1.4 1.2 -0.7
v -1.3 0.2 -0.7
v -1.3 1.2 -0.7
v 1.3 0.2 -0.7
v 1.3 1.2 -0.7
v 1.4 0.2 -0.7
v 1.4 1.2 -0.7
v -1.4 0.2 0.7
v -1.4 1.2 0.7
v -1.3 0.2 0.7
v -1.3 1.2 0.7
v 1.3 0.2 0.7
v 1.3 1.2 0.7
v 1.4 0.2 0.7
v 1.4 1.2 0.7
v -1.2 0.2 -0.8
v -1.2 1.2 -0.8
v 1.2 0.2 -0.8
v 1.2 1.2 -0.8
v -1.4 0 -0.9
v -1.4 1.3 -0.9
v -1.3 1.4 -0.9
v -1.3 1.5 -0.9
v -1.2 0.2 -0.9
v -1.2 1.2 -0.9
v -1 1.4 -0.9
v -1 1.5 -0.9
v 0.9 1.4 -0.9
v 0.9 1.5 -0.9
v 1.2 0.2 -0.9
v 1.2 1.2 -0.9
v 1.2 1.4 -0.9
v 1.2 1.5 -0.9
v 1.4 0 -0.9
v 1.4 1.3 -0.9
v -1.5 1.3 -1
v -1.5 1.4 -1
v 1.5 1.3 -1
v 1.5 1.4 -1
v -1.4 0 0.9
v 1.4 0 0.9
v -1.4 0 -0.9
v 1.4 0 -0.9
v -1.2 1.2 0.9
v 1.2 1.2 0.9
v -1.2 1.2 0.8
v 1.2 1.2 0.8
v -1.4 1.2 0.7
v -1.3 1.2 0.7
v 1.3 1.2 0.7
v 1.4 1.2 0.7
v -1.4 1.2 -0.7
v -1.3 1.2 -0.7
v 1.3 1.2 -0.7
v 1.4 1.2 -0.7
v -1.2 1.2 -0.8
v 1.2 1.2 -0.8
v -1.2 1.2 -0.9
v 1.2 1.2 -0.9
v -1.5 1.3 1
v 1.5 1.3 1
v -1.4 1.3 0.9
v 1.4 1.3 0.9
v -1.4 1.3 -0.9
v 1.4 1.3 -0.9
v -1.5 1.3 -1
v 1.5 1.3 -1
v -1.2 0.2 0.9
v 1.2 0.2 0.9
v -1.2 0.2 0.8
v 1.2 0.2 0.8
v -1.4 0.2 0.7
v -1.3 0.2 0.7
v 1.3 0.2 0.7
v 1.4 0.2 0.7
v -1.4 0.2 -0.7
v -1.3 0.2 -0.7
v 1.3 0.2 -0.7
v 1.4 0.2 -0.7
v -1.2 0.2 -0.8
v 1.2 0.2 -0.8
v -1.2 0.2 -0.9
v 1.2 0.2 -0.9
v -1.5 1.4 1
v 1.5 1.4 1
v -1.3 1.4 0.9
v -1 1.4 0.9
v 0.9 1.4 0.9
v 1.2 1.4 0.9
v -0.1 1.4 0.6
v 0.1 1.4 0.6
v -0.6 1.4 0.0999999
v -0.1 1.4 0.0999999
v 0.1 1.4 0.0999999
v 0.6 1.4 0.0999999
v -0.6 1.4 -0.1
v -0.1 1.4 -0.1
v 0.1 1.4 -0.1
v 0.6 1.4 -0.1
v -0.1 1.4 -0.6
v 0.1 1.4 -0.6
v -1.3 1.4 -0.9
v -1 1.4 -0.9
v 0.9 1.4 -0.9
v 1.2 1.4 -0.9
v -1.5 1.4 -1
v 1.5 1.4 -1
v -1.3 1.5 0.9
v -1 1.5 0.9
v 0.9 1.5 0.9
v 1.2 1.5 0.9
v -1.3 1.5 -0.9
v -1 1.5 -0.9
v 0.9 1.5 -0.9
v 1.2 1.5 -0.9

# faces
f 3/5/1 2/5/1 1/5/1
f 4/5/1 2/5/1 3/5/1
f 7/5/1 6/5/1 5/5/1
f 8/5/1 6/5/1 7/5/1
f 9/5/1 7/5/1 5/5/1
f 10/5/1 6/5/1 8/5/1
f 11/5/1 9/5/1 5/5/1
f 11/5/1 10/5/1 9/5/1
f 12/5/1 6/5/1 10/5/1
f 12/5/1 10/5/1 11/5/1
f 15/5/1 14/5/1 13/5/1
f 16/5/1 14/5/1 15/5/1
f 17/5/1 15/5/1 13/5/1
f 18/3/1 16/3/1 15/3/1
f 18/5/1 15/5/1 17/5/1
f 19/5/1 14/5/1 16/5/1
f 19/3/1 16/3/1 18/3/1
f 20/5/1 14/5/1 19/5/1
f 21/3/1 18/3/1 17/3/1
f 21/5/1 17/5/1 13/5/1
f 21/3/1 20/3/1 19/3/1
f 21/3/1 19/3/1 18/3/1
f 22/3/1 20/3/1 21/3/1
f 23/3/1 20/3/1 22/3/1
f 24/5/1 14/5/1 20/5/1
f 24/3/1 20/3/1 23/3/1
f 25/3/1 23/3/1 22/3/1
f 25/5/1 22/5/1 21/5/1
f 26/5/1 24/5/1 23/5/1
f 26/3/1 23/3/1 25/3/1
f 27/5/1 21/5/1 13/5/1
f 27/5/1 25/5/1 21/5/1
f 27/5/1 26/5/1 25/5/1
f 28/5/1 14/5/1 24/5/1
f 28/5/1 26/5/1 27/5/1
f 28/5/1 24/5/1 26/5/1
f 31/5/1 30/5/1 29/5/1
f 32/5/1 30/5/1 31/5/1
f 35/5/1 34/5/1 33/5/1
f 36/5/1 34/5/1 35/5/1
f 41/5/1 38/5/1 37/5/1
f 42/5/1 38/5/1 41/5/1
f 43/5/1 40/5/1 39/5/1
f 44/5/1 40/5/1 43/5/1
f 45/5/2 46/5/2 49/5/2
f 49/5/2 46/5/2 50/5/2
f 47/5/2 48/5/2 51/5/2
f 51/5/2 48/5/2 52/5/2
f 53/5/2 54/5/2 55/5/2
f 55/5/2 54/5/2 56/5/2
f 57/5/2 58/5/2 59/5/2
f 59/5/2 58/5/2 60/5/2
f 61/5/2 62/5/2 63/5/2
f 63/5/2 62/5/2 64/5/2
f 61/5/2 63/5/2 65/5/2
f 63/3/2 64/3/2 66/3/2
f 65/5/2 63/5/2 66/5/2
f 64/5/2 62/5/2 67/5/2
f 66/3/2 64/3/2 67/3/2
f 67/5/2 62/5/2 68/5/2
f 65/3/2 66/3/2 69/3/2
f 61/5/2 65/5/2 69/5/2
f 67/3/2 68/3/2 69/3/2
f 66/3/2 67/3/2 69/3/2
f 69/3/2 68/3/2 70/3/2
f 70/3/2 68/3/2 71/3/2
f 68/5/2 62/5/2 72/5/2
f 71/3/2 68/3/2 72/3/2
f 70/3/2 71/3/2 73/3/2
f 69/5/2 70/5/2 73/5/2
f 71/5/2 72/5/2 74/5/2
f 73/3/2 71/3/2 74/3/2
f 61/5/2 69/5/2 75/5/2
f 69/5/2 73/5/2 75/5/2
f 73/5/2 74/5/2 75/5/2
f 72/5/2 62/5/2 76/5/2
f 75/5/2 74/5/2 76/5/2
f 74/5/2 72/5/2 76/5/2
f 77/5/2 78/5/2 79/5/2
f 79/5/2 78/5/2 80/5/2
f 77/5/2 79/5/2 81/5/2
f 80/5/2 78/5/2 82/5/2
f 77/5/2 81/5/2 83/5/2
f 81/5/2 82/5/2 83/5/2
f 82/5/2 78/5/2 84/5/2
f 83/5/2 82/5/2 84/5/2
f 85/5/2 86/5/2 87/5/2
f 87/5/2 86/5/2 88/5/2
f 91/5/3 90/5/3 89/5/3
f 92/5/3 90/5/3 91/5/3
f 97/5/3 94/5/3 93/5/3
f 98/5/3 94/5/3 97/5/3
f 99/5/3 96/5/3 95/5/3
f 100/5/3 96/5/3 99/5/3
f 103/5/3 97/5/3 93/5/3
f 104/5/3 94/5/3 98/5/3
f 105/5/3 102/5/3 101/5/3
f 106/5/3 102/5/3 105/5/3
f 107/5/3 103/5/3 93/5/3
f 107/5/3 104/5/3 103/5/3
f 108/5/3 94/5/3 104/5/3
f 108/5/3 104/5/3 107/5/3
f 111/5/3 110/5/3 109/5/3
f 112/5/3 110/5/3 111/5/3
f 115/5/3 114/5/3 113/5/3
f 116/5/3 114/5/3 115/5/3
f 119/5/3 118/5/3 117/5/3
f 120/5/3 118/5/3 119/5/3
f 121/5/4 122/5/4 123/5/4
f 123/5/4 122/5/4 124/5/4
f 125/5/4 126/5/4 127/5/4
f 127/5/4 126/5/4 128/5/4
f 129/5/4 130/5/4 131/5/4
f 131/5/4 130/5/4 132/5/4
f 133/5/4 134/5/4 137/5/4
f 137/5/4 134/5/4 138/5/4
f 135/5/4 136/5/4 139/5/4
f 139/5/4 136/5/4 140/5/4
f 133/5/4 137/5/4 143/5/4
f 138/5/4 134/5/4 144/5/4
f 141/5/4 142/5/4 145/5/4
f 145/5/4 142/5/4 146/5/4
f 133/5/4 143/5/4 147/5/4
f 143/5/4 144/5/4 147/5/4
f 144/5/4 134/5/4 148/5/4
f 147/5/4 144/5/4 148/5/4
f 149/5/4 150/5/4 151/5/4
f 151/5/4 150/5/4 152/5/4
f 155/5/5 154/5/5 153/5/5
f 156/5/5 154/5/5 155/5/5
f 159/5/5 158/5/5 157/5/5
f 160/5/5 158/5/5 159/5/5
f 165/5/5 162/5/5 161/5/5
f 166/5/5 162/5/5 165/5/5
f 167/5/5 164/5/5 163/5/5
f 168/5/5 164/5/5 167/5/5
f 171/5/5 170/5/5 169/5/5
f 172/5/5 170/5/5 171/5/5
f 175/5/5 174/5/5 173/5/5
f 176/5/5 174/5/5 175/5/5
f 177/5/5 175/5/5 173/5/5
f 178/5/5 174/5/5 176/5/5
f 179/5/5 177/5/5 173/5/5
f 179/5/5 178/5/5 177/5/5
f 180/5/5 174/5/5 178/5/5
f 180/5/5 178/5/5 179/5/5
f 181/5/6 182/5/6 183/5/6
f 183/5/6 182/5/6 184/5/6
f 185/5/6 186/5/6 189/5/6
f 189/5/6 186/5/6 190/5/6
f 187/5/6 188/5/6 191/5/6
f 191/5/6 188/5/6 192/5/6
f 193/5/6 194/5/6 195/5/6
f 195/5/6 194/5/6 196/5/6
f 197/5/6 198/5/6 199/5/6
f 199/5/6 198/5/6 200/5/6
f 200/5/6 198/5/6 201/5/6
f 201/5/6 198/5/6 202/5/6
f 200/5/6 201/5/6 203/5/6
f 203/5/6 201/5/6 204/5/6
f 200/5/6 203/5/6 205/5/6
f 203/3/6 204/3/6 206/3/6
f 205/5/6 203/5/6 206/5/6
f 204/5/6 201/5/6 207/5/6
f 206/3/6 204/3/6 207/3/6
f 207/5/6 201/5/6 208/5/6
f 205/3/6 206/3/6 209/3/6
f 200/5/6 205/5/6 209/5/6
f 207/3/6 208/3/6 209/3/6
f 206/3/6 207/3/6 209/3/6
f 209/3/6 208/3/6 210/3/6
f 210/3/6 208/3/6 211/3/6
f 208/5/6 201/5/6 212/5/6
f 211/3/6 208/3/6 212/3/6
f 210/3/6 211/3/6 213/3/6
f 209/5/6 210/5/6 213/5/6
f 211/5/6 212/5/6 214/5/6
f 213/3/6 211/3/6 214/3/6
f 197/5/6 199/5/6 215/5/6
f 200/5/6 209/5/6 216/5/6
f 209/5/6 213/5/6 216/5/6
f 213/5/6 214/5/6 216/5/6
f 214/5/6 212/5/6 217/5/6
f 212/5/6 201/5/6 217/5/6
f 216/5/6 214/5/6 217/5/6
f 202/5/6 198/5/6 218/5/6
f 215/5/6 216/5/6 219/5/6
f 217/5/6 218/5/6 219/5/6
f 216/5/6 217/5/6 219/5/6
f 197/5/6 215/5/6 219/5/6
f 218/5/6 198/5/6 220/5/6
f 219/5/6 218/5/6 220/5/6
f 221/5/6 222/5/6 225/5/6
f 225/5/6 222/5/6 226/5/6
f 223/5/6 224/5/6 227/5/6
f 227/5/6 224/5/6 228/5/6
