# MagicaVoxel @ Ephtracy

# group
o 

# material
mtllib NatGraveStone.mtl
usemtl palette

# normals
vn -1 0 0
vn 1 0 0
vn 0 0 1
vn 0 0 -1
vn 0 -1 0
vn 0 1 0

# texcoords
vt 0.986328 0.5
vt 0.990234 0.5

# verts
v -2 0 0.3
v -2 0 -0.4
v -2 2.9 0.3
v -2 2.9 -0.4
v -1.9 2.9 0.3
v -1.9 2.9 -0.4
v -1.9 3.5 0.3
v -1.9 3.5 -0.4
v -1.5 3.5 0.3
v -1.5 3.5 -0.4
v -1.5 3.8 0.3
v -1.5 3.8 -0.4
v -1.1 3.8 0.3
v -1.1 3.8 -0.4
v -1.1 4 0.3
v -1.1 4 -0.4
v 1.1 3.8 0.3
v 1.1 3.8 -0.4
v 1.1 4 0.3
v 1.1 4 -0.4
v 1.5 3.5 0.3
v 1.5 3.5 -0.4
v 1.5 3.8 0.3
v 1.5 3.8 -0.4
v 1.9 3 0.3
v 1.9 3 -0.4
v 1.9 3.5 0.3
v 1.9 3.5 -0.4
v 2 0 0.3
v 2 0 -0.4
v 2 3 0.3
v 2 3 -0.4
v -2 0 0.3
v -2 2.9 0.3
v -1.9 2.9 0.3
v -1.9 3.5 0.3
v -1.5 3.5 0.3
v -1.5 3.8 0.3
v -1.2 0.6 0.3
v -1.2 1 0.3
v -1.2 1.6 0.3
v -1.2 1.8 0.3
v -1.2 1.9 0.3
v -1.2 2 0.3
v -1.2 2.6 0.3
v -1.2 3 0.3
v -1.1 1.7 0.3
v -1.1 1.8 0.3
v -1.1 2.6 0.3
v -1.1 2.8 0.3
v -1.1 2.9 0.3
v -1.1 3 0.3
v -1.1 3.8 0.3
v -1.1 4 0.3
v -1 1.8 0.3
v -1 1.9 0.3
v -1 2 0.3
v -1 2.7 0.3
v -1 2.8 0.3
v -1 2.9 0.3
v -0.9 1.6 0.3
v -0.9 1.7 0.3
v -0.9 1.8 0.3
v -0.9 1.9 0.3
v -0.9 2.6 0.3
v -0.9 2.7 0.3
v -0.9 2.8 0.3
v -0.9 3 0.3
v -0.8 1.6 0.3
v -0.8 2 0.3
v -0.8 2.6 0.3
v -0.8 3 0.3
v -0.7 1.7 0.3
v -0.7 1.9 0.3
v -0.7 2.6 0.3
v -0.7 2.9 0.3
v -0.6 1.7 0.3
v -0.6 1.9 0.3
v -0.6 2.6 0.3
v -0.6 2.7 0.3
v -0.6 2.8 0.3
v -0.6 2.9 0.3
v -0.6 3 0.3
v -0.5 1.6 0.3
v -0.5 2 0.3
v -0.4 1.6 0.3
v -0.4 2 0.3
v -0.4 2.6 0.3
v -0.4 2.7 0.3
v -0.4 2.8 0.3
v -0.4 2.9 0.3
v -0.4 3 0.3
v -0.3 0.6 0.3
v -0.3 1 0.3
v -0.3 1.7 0.3
v -0.3 1.9 0.3
v -0.3 2.6 0.3
v -0.3 2.9 0.3
v -0.2 0.6 0.3
v -0.2 0.8 0.3
v -0.2 0.9 0.3
v -0.2 1 0.3
v -0.2 1.7 0.3
v -0.2 1.9 0.3
v -0.2 2.9 0.3
v -0.2 3 0.3
v -0.0999999 0.7 0.3
v -0.0999999 0.8 0.3
v -0.0999999 1.6 0.3
v -0.0999999 2 0.3
v -0.0999999 2.6 0.3
v -0.0999999 2.9 0.3
v 2.38419e-07 0.8 0.3
v 2.38419e-07 0.9 0.3
v 2.38419e-07 1 0.3
v 2.38419e-07 1.6 0.3
v 2.38419e-07 2 0.3
v 2.38419e-07 2.6 0.3
v 2.38419e-07 2.9 0.3
v 0.1 0.6 0.3
v 0.1 0.7 0.3
v 0.1 0.8 0.3
v 0.1 0.9 0.3
v 0.1 1.7 0.3
v 0.1 1.9 0.3
v 0.2 0.6 0.3
v 0.2 1 0.3
v 0.2 1.7 0.3
v 0.2 1.9 0.3
v 0.2 2.9 0.3
v 0.2 3 0.3
v 0.3 0.7 0.3
v 0.3 0.9 0.3
v 0.3 1.6 0.3
v 0.3 2 0.3
v 0.3 2.6 0.3
v 0.3 3 0.3
v 0.4 0.7 0.3
v 0.4 0.9 0.3
v 0.4 1.6 0.3
v 0.4 2 0.3
v 0.5 0.6 0.3
v 0.5 1 0.3
v 0.6 0.8 0.3
v 0.6 1 0.3
v 0.7 0.9 0.3
v 0.7 1 0.3
v 0.8 0.6 0.3
v 0.8 0.8 0.3
v 0.8 0.9 0.3
v 0.8 1 0.3
v 0.9 0.6 0.3
v 0.9 1 0.3
v 1 0.8 0.3
v 1 1 0.3
v 1.1 0.9 0.3
v 1.1 1 0.3
v 1.1 3.8 0.3
v 1.1 4 0.3
v 1.2 0.6 0.3
v 1.2 0.8 0.3
v 1.2 0.9 0.3
v 1.2 1 0.3
v 1.3 0.6 0.3
v 1.3 1 0.3
v 1.3 1.6 0.3
v 1.3 2 0.3
v 1.3 2.6 0.3
v 1.3 3 0.3
v 1.5 3.5 0.3
v 1.5 3.8 0.3
v 1.9 3 0.3
v 1.9 3.5 0.3
v 2 0 0.3
v 2 3 0.3
v -2 0 -0.4
v -2 2.9 -0.4
v -1.9 2.9 -0.4
v -1.9 3.5 -0.4
v -1.5 3.5 -0.4
v -1.5 3.8 -0.4
v -1.1 3.8 -0.4
v -1.1 4 -0.4
v 1.1 3.8 -0.4
v 1.1 4 -0.4
v 1.5 3.5 -0.4
v 1.5 3.8 -0.4
v 1.9 3 -0.4
v 1.9 3.5 -0.4
v 2 0 -0.4
v 2 3 -0.4
v -2 0 0.3
v 2 0 0.3
v -2 0 -0.4
v 2 0 -0.4
v -2 2.9 0.3
v -1.9 2.9 0.3
v -2 2.9 -0.4
v -1.9 2.9 -0.4
v 1.9 3 0.3
v 2 3 0.3
v 1.9 3 -0.4
v 2 3 -0.4
v -1.9 3.5 0.3
v -1.5 3.5 0.3
v 1.5 3.5 0.3
v 1.9 3.5 0.3
v -1.9 3.5 -0.4
v -1.5 3.5 -0.4
v 1.5 3.5 -0.4
v 1.9 3.5 -0.4
v -1.5 3.8 0.3
v -1.1 3.8 0.3
v 1.1 3.8 0.3
v 1.5 3.8 0.3
v -1.5 3.8 -0.4
v -1.1 3.8 -0.4
v 1.1 3.8 -0.4
v 1.5 3.8 -0.4
v -1.1 4 0.3
v 1.1 4 0.3
v -1.1 4 -0.4
v 1.1 4 -0.4

# faces
f 3/1/1 2/1/1 1/1/1
f 4/1/1 2/1/1 3/1/1
f 7/1/1 6/1/1 5/1/1
f 8/1/1 6/1/1 7/1/1
f 11/1/1 10/1/1 9/1/1
f 12/1/1 10/1/1 11/1/1
f 15/1/1 14/1/1 13/1/1
f 16/1/1 14/1/1 15/1/1
f 17/1/2 18/1/2 19/1/2
f 19/1/2 18/1/2 20/1/2
f 21/1/2 22/1/2 23/1/2
f 23/1/2 22/1/2 24/1/2
f 25/1/2 26/1/2 27/1/2
f 27/1/2 26/1/2 28/1/2
f 29/1/2 30/1/2 31/1/2
f 31/1/2 30/1/2 32/1/2
f 35/1/3 34/1/3 33/1/3
f 37/1/3 36/1/3 35/1/3
f 39/1/3 35/1/3 33/1/3
f 39/1/3 38/1/3 37/1/3
f 39/1/3 37/1/3 35/1/3
f 40/1/3 38/1/3 39/1/3
f 41/1/3 38/1/3 40/1/3
f 42/1/3 38/1/3 41/1/3
f 43/1/3 38/1/3 42/1/3
f 44/1/3 38/1/3 43/1/3
f 45/1/3 38/1/3 44/1/3
f 46/1/3 38/1/3 45/1/3
f 47/2/3 42/2/3 41/2/3
f 48/1/3 43/1/3 42/1/3
f 48/2/3 42/2/3 47/2/3
f 49/1/3 45/1/3 44/1/3
f 49/2/3 46/2/3 45/2/3
f 50/2/3 46/2/3 49/2/3
f 51/2/3 46/2/3 50/2/3
f 52/1/3 38/1/3 46/1/3
f 52/2/3 46/2/3 51/2/3
f 53/1/3 38/1/3 52/1/3
f 55/1/3 43/1/3 48/1/3
f 55/1/3 48/1/3 47/1/3
f 56/2/3 44/2/3 43/2/3
f 56/1/3 43/1/3 55/1/3
f 57/1/3 49/1/3 44/1/3
f 57/2/3 44/2/3 56/2/3
f 57/1/3 50/1/3 49/1/3
f 58/1/3 50/1/3 57/1/3
f 59/2/3 51/2/3 50/2/3
f 59/1/3 50/1/3 58/1/3
f 60/1/3 54/1/3 53/1/3
f 60/2/3 51/2/3 59/2/3
f 60/1/3 53/1/3 52/1/3
f 60/1/3 52/1/3 51/1/3
f 61/1/3 41/1/3 40/1/3
f 61/2/3 47/2/3 41/2/3
f 62/1/3 55/1/3 47/1/3
f 62/2/3 47/2/3 61/2/3
f 63/2/3 56/2/3 55/2/3
f 63/1/3 55/1/3 62/1/3
f 64/1/3 58/1/3 57/1/3
f 64/2/3 56/2/3 63/2/3
f 64/1/3 57/1/3 56/1/3
f 65/1/3 58/1/3 64/1/3
f 66/2/3 59/2/3 58/2/3
f 66/1/3 58/1/3 65/1/3
f 67/1/3 60/1/3 59/1/3
f 67/2/3 59/2/3 66/2/3
f 68/1/3 54/1/3 60/1/3
f 68/1/3 60/1/3 67/1/3
f 69/1/3 63/1/3 62/1/3
f 69/1/3 61/1/3 40/1/3
f 69/1/3 65/1/3 64/1/3
f 69/1/3 64/1/3 63/1/3
f 69/1/3 62/1/3 61/1/3
f 70/1/3 65/1/3 69/1/3
f 71/2/3 67/2/3 66/2/3
f 71/1/3 65/1/3 70/1/3
f 71/2/3 66/2/3 65/2/3
f 71/2/3 68/2/3 67/2/3
f 72/1/3 54/1/3 68/1/3
f 72/2/3 68/2/3 71/2/3
f 73/2/3 70/2/3 69/2/3
f 74/2/3 70/2/3 73/2/3
f 75/1/3 71/1/3 70/1/3
f 75/1/3 72/1/3 71/1/3
f 76/1/3 72/1/3 75/1/3
f 77/1/3 74/1/3 73/1/3
f 77/2/3 73/2/3 69/2/3
f 78/2/3 70/2/3 74/2/3
f 78/1/3 74/1/3 77/1/3
f 79/2/3 76/2/3 75/2/3
f 79/1/3 75/1/3 70/1/3
f 80/2/3 76/2/3 79/2/3
f 81/2/3 76/2/3 80/2/3
f 82/1/3 72/1/3 76/1/3
f 82/2/3 76/2/3 81/2/3
f 83/1/3 54/1/3 72/1/3
f 83/1/3 72/1/3 82/1/3
f 84/2/3 77/2/3 69/2/3
f 84/1/3 69/1/3 40/1/3
f 84/2/3 78/2/3 77/2/3
f 85/2/3 70/2/3 78/2/3
f 85/2/3 78/2/3 84/2/3
f 85/1/3 80/1/3 79/1/3
f 85/1/3 79/1/3 70/1/3
f 86/1/3 84/1/3 40/1/3
f 86/1/3 85/1/3 84/1/3
f 87/1/3 80/1/3 85/1/3
f 87/1/3 85/1/3 86/1/3
f 88/1/3 80/1/3 87/1/3
f 89/2/3 81/2/3 80/2/3
f 89/1/3 80/1/3 88/1/3
f 90/1/3 82/1/3 81/1/3
f 90/2/3 81/2/3 89/2/3
f 91/2/3 83/2/3 82/2/3
f 91/1/3 82/1/3 90/1/3
f 92/1/3 54/1/3 83/1/3
f 92/2/3 83/2/3 91/2/3
f 93/1/3 39/1/3 33/1/3
f 93/2/3 40/2/3 39/2/3
f 94/1/3 86/1/3 40/1/3
f 94/2/3 40/2/3 93/2/3
f 95/2/3 87/2/3 86/2/3
f 96/2/3 87/2/3 95/2/3
f 97/2/3 89/2/3 88/2/3
f 97/2/3 91/2/3 90/2/3
f 97/2/3 90/2/3 89/2/3
f 97/1/3 88/1/3 87/1/3
f 98/1/3 92/1/3 91/1/3
f 98/2/3 91/2/3 97/2/3
f 99/1/3 94/1/3 93/1/3
f 99/1/3 93/1/3 33/1/3
f 100/1/3 94/1/3 99/1/3
f 101/1/3 94/1/3 100/1/3
f 102/1/3 86/1/3 94/1/3
f 102/1/3 94/1/3 101/1/3
f 103/1/3 96/1/3 95/1/3
f 103/2/3 95/2/3 86/2/3
f 104/2/3 87/2/3 96/2/3
f 104/1/3 96/1/3 103/1/3
f 105/1/3 92/1/3 98/1/3
f 105/1/3 98/1/3 97/1/3
f 106/1/3 54/1/3 92/1/3
f 106/1/3 92/1/3 105/1/3
f 107/2/3 100/2/3 99/2/3
f 108/1/3 101/1/3 100/1/3
f 108/2/3 100/2/3 107/2/3
f 109/2/3 103/2/3 86/2/3
f 109/1/3 86/1/3 102/1/3
f 109/2/3 104/2/3 103/2/3
f 110/1/3 105/1/3 97/1/3
f 110/2/3 104/2/3 109/2/3
f 110/1/3 97/1/3 87/1/3
f 110/2/3 87/2/3 104/2/3
f 111/1/3 105/1/3 110/1/3
f 112/2/3 106/2/3 105/2/3
f 112/1/3 105/1/3 111/1/3
f 113/1/3 101/1/3 108/1/3
f 113/1/3 108/1/3 107/1/3
f 114/2/3 102/2/3 101/2/3
f 114/1/3 101/1/3 113/1/3
f 115/1/3 109/1/3 102/1/3
f 115/2/3 102/2/3 114/2/3
f 115/1/3 111/1/3 110/1/3
f 115/1/3 110/1/3 109/1/3
f 116/1/3 111/1/3 115/1/3
f 117/1/3 111/1/3 116/1/3
f 118/2/3 112/2/3 111/2/3
f 118/1/3 111/1/3 117/1/3
f 119/2/3 106/2/3 112/2/3
f 119/2/3 112/2/3 118/2/3
f 120/1/3 99/1/3 33/1/3
f 120/2/3 107/2/3 99/2/3
f 121/1/3 113/1/3 107/1/3
f 121/2/3 107/2/3 120/2/3
f 122/2/3 114/2/3 113/2/3
f 122/1/3 113/1/3 121/1/3
f 123/1/3 115/1/3 114/1/3
f 123/2/3 114/2/3 122/2/3
f 123/1/3 116/1/3 115/1/3
f 124/2/3 117/2/3 116/2/3
f 125/2/3 117/2/3 124/2/3
f 126/1/3 121/1/3 120/1/3
f 126/1/3 120/1/3 33/1/3
f 126/1/3 122/1/3 121/1/3
f 126/1/3 123/1/3 122/1/3
f 127/1/3 116/1/3 123/1/3
f 127/1/3 123/1/3 126/1/3
f 128/1/3 125/1/3 124/1/3
f 128/2/3 124/2/3 116/2/3
f 129/2/3 117/2/3 125/2/3
f 129/1/3 125/1/3 128/1/3
f 130/1/3 118/1/3 117/1/3
f 130/2/3 106/2/3 119/2/3
f 130/1/3 119/1/3 118/1/3
f 131/1/3 54/1/3 106/1/3
f 131/2/3 106/2/3 130/2/3
f 132/2/3 127/2/3 126/2/3
f 133/2/3 127/2/3 132/2/3
f 134/2/3 128/2/3 116/2/3
f 134/1/3 116/1/3 127/1/3
f 134/2/3 129/2/3 128/2/3
f 135/1/3 130/1/3 117/1/3
f 135/2/3 129/2/3 134/2/3
f 135/2/3 117/2/3 129/2/3
f 135/1/3 131/1/3 130/1/3
f 136/1/3 131/1/3 135/1/3
f 137/1/3 54/1/3 131/1/3
f 137/1/3 131/1/3 136/1/3
f 138/1/3 133/1/3 132/1/3
f 138/2/3 132/2/3 126/2/3
f 139/2/3 127/2/3 133/2/3
f 139/1/3 133/1/3 138/1/3
f 140/1/3 134/1/3 127/1/3
f 140/1/3 136/1/3 135/1/3
f 140/1/3 135/1/3 134/1/3
f 141/1/3 136/1/3 140/1/3
f 142/2/3 138/2/3 126/2/3
f 142/2/3 139/2/3 138/2/3
f 142/1/3 126/1/3 33/1/3
f 143/2/3 127/2/3 139/2/3
f 143/2/3 139/2/3 142/2/3
f 143/1/3 140/1/3 127/1/3
f 144/1/3 143/1/3 142/1/3
f 145/1/3 140/1/3 143/1/3
f 145/1/3 143/1/3 144/1/3
f 146/2/3 145/2/3 144/2/3
f 147/1/3 140/1/3 145/1/3
f 147/2/3 145/2/3 146/2/3
f 148/1/3 142/1/3 33/1/3
f 148/1/3 144/1/3 142/1/3
f 149/2/3 146/2/3 144/2/3
f 149/1/3 144/1/3 148/1/3
f 150/1/3 147/1/3 146/1/3
f 150/2/3 146/2/3 149/2/3
f 151/1/3 140/1/3 147/1/3
f 151/1/3 147/1/3 150/1/3
f 152/2/3 150/2/3 149/2/3
f 152/2/3 149/2/3 148/2/3
f 152/2/3 151/2/3 150/2/3
f 152/1/3 148/1/3 33/1/3
f 153/1/3 140/1/3 151/1/3
f 153/2/3 151/2/3 152/2/3
f 154/1/3 153/1/3 152/1/3
f 155/1/3 140/1/3 153/1/3
f 155/1/3 153/1/3 154/1/3
f 156/2/3 155/2/3 154/2/3
f 157/1/3 140/1/3 155/1/3
f 157/2/3 155/2/3 156/2/3
f 158/1/3 54/1/3 137/1/3
f 159/1/3 54/1/3 158/1/3
f 160/1/3 152/1/3 33/1/3
f 160/1/3 154/1/3 152/1/3
f 161/2/3 156/2/3 154/2/3
f 161/1/3 154/1/3 160/1/3
f 162/1/3 157/1/3 156/1/3
f 162/2/3 156/2/3 161/2/3
f 163/1/3 140/1/3 157/1/3
f 163/1/3 157/1/3 162/1/3
f 164/2/3 162/2/3 161/2/3
f 164/1/3 160/1/3 33/1/3
f 164/2/3 163/2/3 162/2/3
f 164/2/3 161/2/3 160/2/3
f 165/1/3 140/1/3 163/1/3
f 165/2/3 163/2/3 164/2/3
f 166/2/3 141/2/3 140/2/3
f 166/1/3 140/1/3 165/1/3
f 167/1/3 136/1/3 141/1/3
f 167/2/3 141/2/3 166/2/3
f 168/2/3 137/2/3 136/2/3
f 168/1/3 136/1/3 167/1/3
f 169/1/3 158/1/3 137/1/3
f 169/2/3 137/2/3 168/2/3
f 170/1/3 166/1/3 165/1/3
f 170/1/3 158/1/3 169/1/3
f 170/1/3 169/1/3 168/1/3
f 170/1/3 168/1/3 167/1/3
f 170/1/3 165/1/3 164/1/3
f 170/1/3 167/1/3 166/1/3
f 171/1/3 158/1/3 170/1/3
f 172/1/3 170/1/3 164/1/3
f 173/1/3 170/1/3 172/1/3
f 174/1/3 164/1/3 33/1/3
f 174/1/3 172/1/3 164/1/3
f 175/1/3 172/1/3 174/1/3
f 176/1/4 177/1/4 178/1/4
f 178/1/4 179/1/4 180/1/4
f 180/1/4 181/1/4 182/1/4
f 180/1/4 182/1/4 184/1/4
f 182/1/4 183/1/4 184/1/4
f 184/1/4 183/1/4 185/1/4
f 178/1/4 180/1/4 186/1/4
f 180/1/4 184/1/4 186/1/4
f 186/1/4 184/1/4 187/1/4
f 178/1/4 186/1/4 188/1/4
f 188/1/4 186/1/4 189/1/4
f 176/1/4 178/1/4 190/1/4
f 178/1/4 188/1/4 190/1/4
f 190/1/4 188/1/4 191/1/4
f 194/1/5 193/1/5 192/1/5
f 195/1/5 193/1/5 194/1/5
f 196/1/6 197/1/6 198/1/6
f 198/1/6 197/1/6 199/1/6
f 200/1/6 201/1/6 202/1/6
f 202/1/6 201/1/6 203/1/6
f 204/1/6 205/1/6 208/1/6
f 208/1/6 205/1/6 209/1/6
f 206/1/6 207/1/6 210/1/6
f 210/1/6 207/1/6 211/1/6
f 212/1/6 213/1/6 216/1/6
f 216/1/6 213/1/6 217/1/6
f 214/1/6 215/1/6 218/1/6
f 218/1/6 215/1/6 219/1/6
f 220/1/6 221/1/6 222/1/6
f 222/1/6 221/1/6 223/1/6
