# MagicaVoxel @ Ephtracy

# group
o 

# material
mtllib ShotGunMesh.mtl
usemtl palette

# normals
vn -1 0 0
vn 1 0 0
vn 0 0 1
vn 0 0 -1
vn 0 -1 0
vn 0 1 0

# texcoords
vt 0.373047 0.5
vt 0.955078 0.5
vt 0.990234 0.5
vt 0.994141 0.5

# verts
v -0.5 1.7 2.6
v -0.5 1.7 0.8
v -0.5 1.8 2.6
v -0.5 1.8 0.8
v -0.4 1.4 2.6
v -0.4 1.4 1.2
v -0.4 1.5 1.2
v -0.4 1.5 0.8
v -0.4 1.7 2.8
v -0.4 1.7 2.6
v -0.4 1.7 0.8
v -0.4 1.8 2.6
v -0.4 1.8 2.1
v -0.4 1.8 1.3
v -0.4 1.8 0.8
v -0.4 1.8 0.0999999
v -0.4 1.9 0.0999999
v -0.4 1.9 -2.4
v -0.4 2 2.1
v -0.4 2 1.3
v -0.4 2.1 2.8
v -0.4 2.1 2.7
v -0.4 2.1 0.8
v -0.4 2.1 -2.4
v -0.4 2.2 2.7
v -0.4 2.2 2.2
v -0.4 2.2 1.6
v -0.4 2.2 0.8
v -0.4 2.3 2.2
v -0.4 2.3 1.6
v -0.3 0.6 2.9
v -0.3 0.6 2.5
v -0.3 1.4 2.6
v -0.3 1.4 2.5
v -0.3 1.4 1.2
v -0.3 1.4 0.8
v -0.3 1.5 1.2
v -0.3 1.5 0.8
v -0.3 1.5 -2.7
v -0.3 1.7 2.9
v -0.3 1.7 2.8
v -0.3 1.7 2.6
v -0.3 1.7 0.8
v -0.3 1.7 -2.7
v -0.3 1.8 0.0999999
v -0.3 1.8 -2.6
v -0.3 1.9 0.0999999
v -0.3 1.9 -2.4
v -0.3 1.9 -2.6
v -0.3 1.9 -3.2
v -0.3 2 2.9
v -0.3 2 2.8
v -0.3 2.1 2.8
v -0.3 2.1 2.7
v -0.3 2.1 0.8
v -0.3 2.1 -2.4
v -0.3 2.1 -2.6
v -0.3 2.1 -3.2
v -0.3 2.2 2.8
v -0.3 2.2 2.7
v -0.3 2.2 2.5
v -0.3 2.2 2.2
v -0.3 2.2 1.6
v -0.3 2.2 1.3
v -0.3 2.2 0.8
v -0.3 2.2 -2.6
v -0.3 2.3 2.5
v -0.3 2.3 2.2
v -0.3 2.3 1.6
v -0.3 2.3 1.3
v -0.2 0.4 3
v -0.2 0.4 2.4
v -0.2 0.5 3
v -0.2 0.5 2.4
v -0.2 0.6 2.9
v -0.2 0.6 2.5
v -0.2 1.1 2.3
v -0.2 1.1 1.8
v -0.2 1.2 2.4
v -0.2 1.2 2.3
v -0.2 1.2 1.9
v -0.2 1.3 2.2
v -0.2 1.3 2.1
v -0.2 1.3 1.8
v -0.2 1.3 1.6
v -0.2 1.4 2.5
v -0.2 1.4 2.3
v -0.2 1.4 2.2
v -0.2 1.4 2.1
v -0.2 1.4 1.9
v -0.2 1.4 1.6
v -0.2 1.4 0.8
v -0.2 1.4 -2.7
v -0.2 1.5 0.8
v -0.2 1.5 -2.7
v -0.2 1.7 2.9
v -0.2 1.7 0.8
v -0.2 1.7 -2.7
v -0.2 1.8 0.8
v -0.2 1.8 -2.6
v -0.2 1.8 -2.7
v -0.2 1.8 -3.2
v -0.2 1.9 -2.6
v -0.2 1.9 -3.2
v -0.2 2 3
v -0.2 2 2.9
v -0.2 2 2.8
v -0.2 2.1 2.9
v -0.2 2.1 2.8
v -0.2 2.1 -2.6
v -0.2 2.1 -3.2
v -0.2 2.2 2.7
v -0.2 2.2 2.5
v -0.2 2.2 1.3
v -0.2 2.2 -2.6
v -0.2 2.2 -2.9
v -0.2 2.2 -3.2
v -0.2 2.3 2.7
v -0.2 2.3 2.5
v -0.2 2.3 1.3
v -0.2 2.3 -2.9
v 0 0.4 3
v 0 0.4 2.4
v 0 0.5 3
v 0 0.5 2.4
v 0 0.6 2.9
v 0 0.6 2.5
v 0 1.1 2.3
v 0 1.1 1.8
v 0 1.2 2.4
v 0 1.2 2.3
v 0 1.2 1.9
v 0 1.3 2.2
v 0 1.3 2.1
v 0 1.3 1.8
v 0 1.3 1.6
v 0 1.4 2.5
v 0 1.4 2.3
v 0 1.4 2.2
v 0 1.4 2.1
v 0 1.4 1.9
v 0 1.4 1.6
v 0 1.4 0.8
v 0 1.4 -2.7
v 0 1.5 0.8
v 0 1.5 -2.7
v 0 1.7 2.9
v 0 1.7 0.8
v 0 1.7 -2.7
v 0 1.8 0.8
v 0 1.8 -2.7
v 0 1.8 -3.2
v 0 1.9 -2.7
v 0 1.9 -3.2
v 0 2 3
v 0 2 2.9
v 0 2 2.8
v 0 2.1 2.9
v 0 2.1 2.8
v 0 2.1 -2.7
v 0 2.1 -3.2
v 0 2.2 2.7
v 0 2.2 2.5
v 0 2.2 1.3
v 0 2.2 -2.7
v 0 2.2 -2.9
v 0 2.2 -3.2
v 0 2.3 2.7
v 0 2.3 2.5
v 0 2.3 1.3
v 0 2.3 -2.9
v 0.1 0.6 2.9
v 0.1 0.6 2.5
v 0.1 1.4 2.6
v 0.1 1.4 2.5
v 0.1 1.4 1.1
v 0.1 1.4 0.8
v 0.1 1.5 1.1
v 0.1 1.5 0.8
v 0.1 1.5 -2.7
v 0.1 1.7 2.9
v 0.1 1.7 2.8
v 0.1 1.7 2.6
v 0.1 1.7 0.8
v 0.1 1.7 -2.7
v 0.1 1.8 0.0999999
v 0.1 1.8 -2.7
v 0.1 1.9 0.0999999
v 0.1 1.9 -2.4
v 0.1 1.9 -2.7
v 0.1 1.9 -3.2
v 0.1 2 2.9
v 0.1 2 2.8
v 0.1 2.1 2.8
v 0.1 2.1 2.7
v 0.1 2.1 1.1
v 0.1 2.1 -2.4
v 0.1 2.1 -2.7
v 0.1 2.1 -3.2
v 0.1 2.2 2.8
v 0.1 2.2 2.7
v 0.1 2.2 2.5
v 0.1 2.2 2.2
v 0.1 2.2 1.6
v 0.1 2.2 1.3
v 0.1 2.2 1.1
v 0.1 2.2 -2.7
v 0.1 2.3 2.5
v 0.1 2.3 2.2
v 0.1 2.3 1.6
v 0.1 2.3 1.3
v 0.2 1.4 2.6
v 0.2 1.4 1.1
v 0.2 1.5 1.1
v 0.2 1.5 0.8
v 0.2 1.7 2.8
v 0.2 1.7 2.6
v 0.2 1.7 0.8
v 0.2 1.8 2.6
v 0.2 1.8 0.8
v 0.2 1.8 0.0999999
v 0.2 1.9 0.0999999
v 0.2 1.9 -2.4
v 0.2 2.1 2.8
v 0.2 2.1 2.7
v 0.2 2.1 1.1
v 0.2 2.1 -2.4
v 0.2 2.2 2.7
v 0.2 2.2 2.2
v 0.2 2.2 1.6
v 0.2 2.2 1.1
v 0.2 2.3 2.2
v 0.2 2.3 1.6
v 0.3 1.7 2.6
v 0.3 1.7 0.8
v 0.3 1.8 2.6
v 0.3 1.8 0.8
v -0.2 0.4 3
v -0.2 0.5 3
v -0.2 2 3
v 0 0.4 3
v 0 0.5 3
v 0 2 3
v -0.3 0.6 2.9
v -0.3 1.7 2.9
v -0.3 2 2.9
v -0.2 0.6 2.9
v -0.2 1.7 2.9
v -0.2 2 2.9
v -0.2 2.1 2.9
v 0 0.6 2.9
v 0 1.7 2.9
v 0 2 2.9
v 0 2.1 2.9
v 0.1 0.6 2.9
v 0.1 1.7 2.9
v 0.1 2 2.9
v -0.4 1.7 2.8
v -0.4 2.1 2.8
v -0.3 1.7 2.8
v -0.3 2 2.8
v -0.3 2.1 2.8
v -0.3 2.2 2.8
v -0.2 2 2.8
v -0.2 2.1 2.8
v 0 2 2.8
v 0 2.1 2.8
v 0.1 1.7 2.8
v 0.1 2 2.8
v 0.1 2.1 2.8
v 0.1 2.2 2.8
v 0.2 1.7 2.8
v 0.2 2.1 2.8
v -0.4 2.1 2.7
v -0.4 2.2 2.7
v -0.3 2.1 2.7
v -0.3 2.2 2.7
v -0.2 2.2 2.7
v -0.2 2.3 2.7
v 0 2.2 2.7
v 0 2.3 2.7
v 0.1 2.1 2.7
v 0.1 2.2 2.7
v 0.2 2.1 2.7
v 0.2 2.2 2.7
v -0.5 1.7 2.6
v -0.5 1.8 2.6
v -0.4 1.4 2.6
v -0.4 1.7 2.6
v -0.4 1.8 2.6
v -0.3 1.4 2.6
v -0.3 1.7 2.6
v 0.1 1.4 2.6
v 0.1 1.7 2.6
v 0.2 1.4 2.6
v 0.2 1.7 2.6
v 0.2 1.8 2.6
v 0.3 1.7 2.6
v 0.3 1.8 2.6
v -0.3 2.2 2.5
v -0.3 2.3 2.5
v -0.2 2.2 2.5
v -0.2 2.3 2.5
v 0 2.2 2.5
v 0 2.3 2.5
v 0.1 2.2 2.5
v 0.1 2.3 2.5
v -0.2 1.1 2.3
v -0.2 1.2 2.3
v 0 1.1 2.3
v 0 1.2 2.3
v -0.4 2.2 2.2
v -0.4 2.3 2.2
v -0.3 2.2 2.2
v -0.3 2.3 2.2
v -0.2 1.3 2.2
v -0.2 1.4 2.2
v 0 1.3 2.2
v 0 1.4 2.2
v 0.1 2.2 2.2
v 0.1 2.3 2.2
v 0.2 2.2 2.2
v 0.2 2.3 2.2
v -0.2 1.2 1.9
v -0.2 1.4 1.9
v 0 1.2 1.9
v 0 1.4 1.9
v -0.3 0.6 2.5
v -0.3 1.4 2.5
v -0.2 0.6 2.5
v -0.2 1.4 2.5
v 0 0.6 2.5
v 0 1.4 2.5
v 0.1 0.6 2.5
v 0.1 1.4 2.5
v -0.2 0.4 2.4
v -0.2 0.5 2.4
v -0.2 1.2 2.4
v 0 0.4 2.4
v 0 0.5 2.4
v 0 1.2 2.4
v -0.2 1.2 2.3
v -0.2 1.4 2.3
v 0 1.2 2.3
v 0 1.4 2.3
v -0.2 1.3 2.1
v -0.2 1.4 2.1
v 0 1.3 2.1
v 0 1.4 2.1
v -0.2 1.1 1.8
v -0.2 1.3 1.8
v 0 1.1 1.8
v 0 1.3 1.8
v -0.4 2.2 1.6
v -0.4 2.3 1.6
v -0.3 2.2 1.6
v -0.3 2.3 1.6
v -0.2 1.3 1.6
v -0.2 1.4 1.6
v 0 1.3 1.6
v 0 1.4 1.6
v 0.1 2.2 1.6
v 0.1 2.3 1.6
v 0.2 2.2 1.6
v 0.2 2.3 1.6
v -0.3 2.2 1.3
v -0.3 2.3 1.3
v -0.2 2.2 1.3
v -0.2 2.3 1.3
v 0 2.2 1.3
v 0 2.3 1.3
v 0.1 2.2 1.3
v 0.1 2.3 1.3
v -0.4 1.4 1.2
v -0.4 1.5 1.2
v -0.3 1.4 1.2
v -0.3 1.5 1.2
v 0.1 1.4 1.1
v 0.1 1.5 1.1
v 0.1 2.1 1.1
v 0.1 2.2 1.1
v 0.2 1.4 1.1
v 0.2 1.5 1.1
v 0.2 2.1 1.1
v 0.2 2.2 1.1
v -0.5 1.7 0.8
v -0.5 1.8 0.8
v -0.4 1.5 0.8
v -0.4 1.7 0.8
v -0.4 1.8 0.8
v -0.4 2.1 0.8
v -0.4 2.2 0.8
v -0.3 1.4 0.8
v -0.3 1.5 0.8
v -0.3 1.7 0.8
v -0.3 2.1 0.8
v -0.3 2.2 0.8
v -0.2 1.4 0.8
v -0.2 1.5 0.8
v -0.2 1.7 0.8
v -0.2 1.8 0.8
v 0 1.4 0.8
v 0 1.5 0.8
v 0 1.7 0.8
v 0 1.8 0.8
v 0.1 1.4 0.8
v 0.1 1.5 0.8
v 0.1 1.7 0.8
v 0.2 1.5 0.8
v 0.2 1.7 0.8
v 0.2 1.8 0.8
v 0.3 1.7 0.8
v 0.3 1.8 0.8
v -0.4 1.8 0.0999999
v -0.4 1.9 0.0999999
v -0.3 1.8 0.0999999
v -0.3 1.9 0.0999999
v 0.1 1.8 0.0999999
v 0.1 1.9 0.0999999
v 0.2 1.8 0.0999999
v 0.2 1.9 0.0999999
v -0.4 1.9 -2.4
v -0.4 2.1 -2.4
v -0.3 1.9 -2.4
v -0.3 2.1 -2.4
v 0.1 1.9 -2.4
v 0.1 2.1 -2.4
v 0.2 1.9 -2.4
v 0.2 2.1 -2.4
v -0.3 1.8 -2.6
v -0.3 1.9 -2.6
v -0.3 2.1 -2.6
v -0.3 2.2 -2.6
v -0.2 1.8 -2.6
v -0.2 1.9 -2.6
v -0.2 2.1 -2.6
v -0.2 2.2 -2.6
v -0.3 1.5 -2.7
v -0.3 1.7 -2.7
v -0.2 1.4 -2.7
v -0.2 1.5 -2.7
v -0.2 1.7 -2.7
v -0.2 1.8 -2.7
v 0 1.4 -2.7
v 0 1.5 -2.7
v 0 1.7 -2.7
v 0 1.8 -2.7
v 0 1.9 -2.7
v 0 2.1 -2.7
v 0 2.2 -2.7
v 0.1 1.5 -2.7
v 0.1 1.7 -2.7
v 0.1 1.8 -2.7
v 0.1 1.9 -2.7
v 0.1 2.1 -2.7
v 0.1 2.2 -2.7
v -0.2 2.2 -2.9
v -0.2 2.3 -2.9
v 0 2.2 -2.9
v 0 2.3 -2.9
v -0.3 1.9 -3.2
v -0.3 2.1 -3.2
v -0.2 1.8 -3.2
v -0.2 1.9 -3.2
v -0.2 2.1 -3.2
v -0.2 2.2 -3.2
v 0 1.8 -3.2
v 0 1.9 -3.2
v 0 2.1 -3.2
v 0 2.2 -3.2
v 0.1 1.9 -3.2
v 0.1 2.1 -3.2
v -0.2 0.4 3
v 0 0.4 3
v -0.2 0.4 2.4
v 0 0.4 2.4
v -0.3 0.6 2.9
v -0.2 0.6 2.9
v 0 0.6 2.9
v 0.1 0.6 2.9
v -0.3 0.6 2.5
v -0.2 0.6 2.5
v 0 0.6 2.5
v 0.1 0.6 2.5
v -0.2 1.1 2.3
v 0 1.1 2.3
v -0.2 1.1 1.8
v 0 1.1 1.8
v -0.2 1.2 2.4
v 0 1.2 2.4
v -0.2 1.2 2.3
v 0 1.2 2.3
v -0.2 1.3 2.2
v 0 1.3 2.2
v -0.2 1.3 2.1
v 0 1.3 2.1
v -0.2 1.3 1.8
v 0 1.3 1.8
v -0.2 1.3 1.6
v 0 1.3 1.6
v -0.4 1.4 2.6
v -0.3 1.4 2.6
v 0.1 1.4 2.6
v 0.2 1.4 2.6
v -0.3 1.4 2.5
v -0.2 1.4 2.5
v 0 1.4 2.5
v 0.1 1.4 2.5
v -0.2 1.4 2.3
v 0 1.4 2.3
v -0.2 1.4 2.2
v 0 1.4 2.2
v -0.2 1.4 2.1
v 0 1.4 2.1
v -0.2 1.4 1.9
v 0 1.4 1.9
v -0.2 1.4 1.6
v 0 1.4 1.6
v -0.4 1.4 1.2
v -0.3 1.4 1.2
v 0.1 1.4 1.1
v 0.2 1.4 1.1
v -0.3 1.4 0.8
v -0.2 1.4 0.8
v 0 1.4 0.8
v 0.1 1.4 0.8
v -0.2 1.4 -2.7
v 0 1.4 -2.7
v -0.4 1.5 1.2
v -0.3 1.5 1.2
v 0.1 1.5 1.1
v 0.2 1.5 1.1
v -0.4 1.5 0.8
v -0.3 1.5 0.8
v -0.2 1.5 0.8
v 0 1.5 0.8
v 0.1 1.5 0.8
v 0.2 1.5 0.8
v -0.3 1.5 -2.7
v -0.2 1.5 -2.7
v 0 1.5 -2.7
v 0.1 1.5 -2.7
v -0.4 1.7 2.8
v -0.3 1.7 2.8
v 0.1 1.7 2.8
v 0.2 1.7 2.8
v -0.5 1.7 2.6
v -0.4 1.7 2.6
v -0.3 1.7 2.6
v 0.1 1.7 2.6
v 0.2 1.7 2.6
v 0.3 1.7 2.6
v -0.5 1.7 0.8
v -0.4 1.7 0.8
v 0.2 1.7 0.8
v 0.3 1.7 0.8
v -0.4 1.8 0.8
v -0.2 1.8 0.8
v 0 1.8 0.8
v 0.2 1.8 0.8
v -0.4 1.8 0.0999999
v -0.3 1.8 0.0999999
v 0.1 1.8 0.0999999
v 0.2 1.8 0.0999999
v -0.3 1.8 -2.6
v -0.2 1.8 -2.6
v -0.2 1.8 -2.7
v 0 1.8 -2.7
v 0.1 1.8 -2.7
v -0.2 1.8 -3.2
v 0 1.8 -3.2
v -0.4 1.9 0.0999999
v -0.3 1.9 0.0999999
v 0.1 1.9 0.0999999
v 0.2 1.9 0.0999999
v -0.4 1.9 -2.4
v -0.3 1.9 -2.4
v 0.1 1.9 -2.4
v 0.2 1.9 -2.4
v -0.3 1.9 -2.6
v -0.2 1.9 -2.6
v 0 1.9 -2.7
v 0.1 1.9 -2.7
v -0.3 1.9 -3.2
v -0.2 1.9 -3.2
v 0 1.9 -3.2
v 0.1 1.9 -3.2
v -0.2 1.2 2.3
v 0 1.2 2.3
v -0.2 1.2 1.9
v 0 1.2 1.9
v -0.3 1.7 0.8
v -0.2 1.7 0.8
v 0 1.7 0.8
v 0.1 1.7 0.8
v -0.3 1.7 -2.7
v -0.2 1.7 -2.7
v 0 1.7 -2.7
v 0.1 1.7 -2.7
v -0.5 1.8 2.6
v -0.4 1.8 2.6
v 0.2 1.8 2.6
v 0.3 1.8 2.6
v -0.4 1.8 2.1
v -0.4 1.8 1.3
v -0.5 1.8 0.8
v -0.4 1.8 0.8
v 0.2 1.8 0.8
v 0.3 1.8 0.8
v -0.2 2 3
v 0 2 3
v -0.3 2 2.9
v -0.2 2 2.9
v 0 2 2.9
v 0.1 2 2.9
v -0.3 2 2.8
v -0.2 2 2.8
v 0 2 2.8
v 0.1 2 2.8
v -0.2 2.1 2.9
v 0 2.1 2.9
v -0.4 2.1 2.8
v -0.3 2.1 2.8
v -0.2 2.1 2.8
v 0 2.1 2.8
v 0.1 2.1 2.8
v 0.2 2.1 2.8
v -0.4 2.1 2.7
v -0.3 2.1 2.7
v 0.1 2.1 2.7
v 0.2 2.1 2.7
v 0.1 2.1 1.1
v 0.2 2.1 1.1
v -0.4 2.1 0.8
v -0.3 2.1 0.8
v -0.4 2.1 -2.4
v -0.3 2.1 -2.4
v 0.1 2.1 -2.4
v 0.2 2.1 -2.4
v -0.3 2.1 -2.6
v -0.2 2.1 -2.6
v 0 2.1 -2.7
v 0.1 2.1 -2.7
v -0.3 2.1 -3.2
v -0.2 2.1 -3.2
v 0 2.1 -3.2
v 0.1 2.1 -3.2
v -0.3 2.2 2.8
v 0.1 2.2 2.8
v -0.4 2.2 2.7
v -0.3 2.2 2.7
v -0.2 2.2 2.7
v 0 2.2 2.7
v 0.1 2.2 2.7
v 0.2 2.2 2.7
v -0.3 2.2 2.5
v -0.2 2.2 2.5
v 0 2.2 2.5
v 0.1 2.2 2.5
v -0.4 2.2 2.2
v -0.3 2.2 2.2
v 0.1 2.2 2.2
v 0.2 2.2 2.2
v -0.4 2.2 1.6
v -0.3 2.2 1.6
v 0.1 2.2 1.6
v 0.2 2.2 1.6
v -0.3 2.2 1.3
v -0.2 2.2 1.3
v 0 2.2 1.3
v 0.1 2.2 1.3
v 0.1 2.2 1.1
v 0.2 2.2 1.1
v -0.4 2.2 0.8
v -0.3 2.2 0.8
v -0.3 2.2 -2.6
v -0.2 2.2 -2.6
v 0 2.2 -2.7
v 0.1 2.2 -2.7
v -0.2 2.2 -2.9
v 0 2.2 -2.9
v -0.2 2.2 -3.2
v 0 2.2 -3.2
v -0.2 2.3 2.7
v 0 2.3 2.7
v -0.3 2.3 2.5
v -0.2 2.3 2.5
v 0 2.3 2.5
v 0.1 2.3 2.5
v -0.4 2.3 2.2
v -0.3 2.3 2.2
v 0.1 2.3 2.2
v 0.2 2.3 2.2
v -0.4 2.3 1.6
v -0.3 2.3 1.6
v 0.1 2.3 1.6
v 0.2 2.3 1.6
v -0.3 2.3 1.3
v -0.2 2.3 1.3
v 0 2.3 1.3
v 0.1 2.3 1.3
v -0.2 2.3 -2.9
v 0 2.3 -2.9

# faces
f 3/3/1 2/3/1 1/3/1
f 4/3/1 2/3/1 3/3/1
f 7/3/1 6/3/1 5/3/1
f 10/3/1 7/3/1 5/3/1
f 10/3/1 8/3/1 7/3/1
f 11/3/1 8/3/1 10/3/1
f 12/3/1 10/3/1 9/3/1
f 17/3/1 15/3/1 14/3/1
f 17/3/1 16/3/1 15/3/1
f 19/2/1 14/2/1 13/2/1
f 19/3/1 13/3/1 12/3/1
f 20/3/1 18/3/1 17/3/1
f 20/2/1 14/2/1 19/2/1
f 20/3/1 17/3/1 14/3/1
f 21/3/1 19/3/1 12/3/1
f 21/3/1 12/3/1 9/3/1
f 21/3/1 20/3/1 19/3/1
f 22/3/1 20/3/1 21/3/1
f 23/3/1 18/3/1 20/3/1
f 23/3/1 20/3/1 22/3/1
f 24/3/1 18/3/1 23/3/1
f 25/3/1 23/3/1 22/3/1
f 26/3/1 23/3/1 25/3/1
f 27/3/1 23/3/1 26/3/1
f 28/3/1 23/3/1 27/3/1
f 29/3/1 27/3/1 26/3/1
f 30/3/1 27/3/1 29/3/1
f 33/2/1 32/2/1 31/2/1
f 34/2/1 32/2/1 33/2/1
f 37/3/1 36/3/1 35/3/1
f 38/3/1 36/3/1 37/3/1
f 40/2/1 33/2/1 31/2/1
f 41/2/1 33/2/1 40/2/1
f 42/2/1 33/2/1 41/2/1
f 43/2/1 39/2/1 38/2/1
f 44/2/1 39/2/1 43/2/1
f 47/3/1 46/3/1 45/3/1
f 48/3/1 46/3/1 47/3/1
f 49/3/1 46/3/1 48/3/1
f 51/3/1 41/3/1 40/3/1
f 52/3/1 41/3/1 51/3/1
f 56/3/1 49/3/1 48/3/1
f 56/3/1 50/3/1 49/3/1
f 57/3/1 50/3/1 56/3/1
f 58/3/1 50/3/1 57/3/1
f 59/3/1 54/3/1 53/3/1
f 60/3/1 54/3/1 59/3/1
f 65/3/1 56/3/1 55/3/1
f 65/3/1 57/3/1 56/3/1
f 66/3/1 57/3/1 65/3/1
f 67/3/1 62/3/1 61/3/1
f 68/3/1 62/3/1 67/3/1
f 69/3/1 64/3/1 63/3/1
f 70/3/1 64/3/1 69/3/1
f 73/4/1 72/4/1 71/4/1
f 74/4/1 72/4/1 73/4/1
f 75/3/1 74/3/1 73/3/1
f 76/3/1 74/3/1 75/3/1
f 79/3/1 74/3/1 76/3/1
f 80/3/1 78/3/1 77/3/1
f 81/3/1 78/3/1 80/3/1
f 84/3/1 78/3/1 81/3/1
f 86/3/1 79/3/1 76/3/1
f 86/3/1 80/3/1 79/3/1
f 87/3/1 80/3/1 86/3/1
f 88/3/1 83/3/1 82/3/1
f 89/3/1 83/3/1 88/3/1
f 90/3/1 85/3/1 84/3/1
f 90/3/1 84/3/1 81/3/1
f 91/3/1 85/3/1 90/3/1
f 94/2/1 93/2/1 92/2/1
f 95/2/1 93/2/1 94/2/1
f 96/3/1 75/3/1 73/3/1
f 99/2/1 98/2/1 97/2/1
f 100/2/1 98/2/1 99/2/1
f 101/2/1 98/2/1 100/2/1
f 103/3/1 101/3/1 100/3/1
f 103/3/1 102/3/1 101/3/1
f 104/3/1 102/3/1 103/3/1
f 105/3/1 96/3/1 73/3/1
f 106/3/1 96/3/1 105/3/1
f 108/3/1 107/3/1 106/3/1
f 109/3/1 107/3/1 108/3/1
f 115/3/1 111/3/1 110/3/1
f 116/3/1 111/3/1 115/3/1
f 117/3/1 111/3/1 116/3/1
f 118/3/1 113/3/1 112/3/1
f 119/3/1 113/3/1 118/3/1
f 120/3/1 115/3/1 114/3/1
f 120/3/1 116/3/1 115/3/1
f 121/3/1 116/3/1 120/3/1
f 122/4/2 123/4/2 124/4/2
f 124/4/2 123/4/2 125/4/2
f 124/3/2 125/3/2 126/3/2
f 126/3/2 125/3/2 127/3/2
f 127/3/2 125/3/2 130/3/2
f 128/3/2 129/3/2 131/3/2
f 131/3/2 129/3/2 132/3/2
f 132/3/2 129/3/2 135/3/2
f 127/3/2 130/3/2 137/3/2
f 130/3/2 131/3/2 137/3/2
f 137/3/2 131/3/2 138/3/2
f 133/3/2 134/3/2 139/3/2
f 139/3/2 134/3/2 140/3/2
f 135/3/2 136/3/2 141/3/2
f 132/3/2 135/3/2 141/3/2
f 141/3/2 136/3/2 142/3/2
f 143/2/2 144/2/2 145/2/2
f 145/2/2 144/2/2 146/2/2
f 124/3/2 126/3/2 147/3/2
f 148/2/2 149/2/2 150/2/2
f 150/2/2 149/2/2 151/2/2
f 151/3/2 152/3/2 153/3/2
f 153/3/2 152/3/2 154/3/2
f 124/3/2 147/3/2 155/3/2
f 155/3/2 147/3/2 156/3/2
f 156/3/2 157/3/2 158/3/2
f 158/3/2 157/3/2 159/3/2
f 160/3/2 161/3/2 165/3/2
f 165/3/2 161/3/2 166/3/2
f 166/3/2 161/3/2 167/3/2
f 162/3/2 163/3/2 168/3/2
f 168/3/2 163/3/2 169/3/2
f 164/3/2 165/3/2 170/3/2
f 165/3/2 166/3/2 170/3/2
f 170/3/2 166/3/2 171/3/2
f 172/2/2 173/2/2 174/2/2
f 174/2/2 173/2/2 175/2/2
f 176/3/2 177/3/2 178/3/2
f 178/3/2 177/3/2 179/3/2
f 172/2/2 174/2/2 181/2/2
f 181/2/2 174/2/2 182/2/2
f 182/2/2 174/2/2 183/2/2
f 179/2/2 180/2/2 184/2/2
f 184/2/2 180/2/2 185/2/2
f 186/3/2 187/3/2 188/3/2
f 188/3/2 187/3/2 189/3/2
f 189/3/2 187/3/2 190/3/2
f 181/3/2 182/3/2 192/3/2
f 192/3/2 182/3/2 193/3/2
f 189/3/2 190/3/2 197/3/2
f 190/3/2 191/3/2 197/3/2
f 197/3/2 191/3/2 198/3/2
f 198/3/2 191/3/2 199/3/2
f 194/3/2 195/3/2 200/3/2
f 200/3/2 195/3/2 201/3/2
f 196/3/2 197/3/2 206/3/2
f 197/3/2 198/3/2 206/3/2
f 206/3/2 198/3/2 207/3/2
f 202/3/2 203/3/2 208/3/2
f 208/3/2 203/3/2 209/3/2
f 204/3/2 205/3/2 210/3/2
f 210/3/2 205/3/2 211/3/2
f 212/3/2 213/3/2 214/3/2
f 212/3/2 214/3/2 217/3/2
f 214/3/2 215/3/2 217/3/2
f 217/3/2 215/3/2 218/3/2
f 216/3/2 217/3/2 219/3/2
f 219/3/2 220/3/2 222/3/2
f 220/3/2 221/3/2 222/3/2
f 216/3/2 219/3/2 224/3/2
f 222/3/2 223/3/2 224/3/2
f 219/3/2 222/3/2 224/3/2
f 224/3/2 223/3/2 225/3/2
f 225/3/2 223/3/2 226/3/2
f 226/3/2 223/3/2 227/3/2
f 225/3/2 226/3/2 228/3/2
f 228/3/2 226/3/2 229/3/2
f 229/3/2 226/3/2 230/3/2
f 230/3/2 226/3/2 231/3/2
f 229/3/2 230/3/2 232/3/2
f 232/3/2 230/3/2 233/3/2
f 234/3/2 235/3/2 236/3/2
f 236/3/2 235/3/2 237/3/2
f 241/4/3 239/4/3 238/4/3
f 242/3/3 240/3/3 239/3/3
f 242/4/3 239/4/3 241/4/3
f 243/3/3 240/3/3 242/3/3
f 247/2/3 245/2/3 244/2/3
f 248/3/3 246/3/3 245/3/3
f 248/2/3 245/2/3 247/2/3
f 249/3/3 246/3/3 248/3/3
f 253/3/3 250/3/3 249/3/3
f 254/3/3 250/3/3 253/3/3
f 255/2/3 252/2/3 251/2/3
f 256/3/3 253/3/3 252/3/3
f 256/2/3 252/2/3 255/2/3
f 257/3/3 253/3/3 256/3/3
f 260/3/3 259/3/3 258/3/3
f 261/3/3 259/3/3 260/3/3
f 262/3/3 259/3/3 261/3/3
f 264/3/3 263/3/3 262/3/3
f 264/3/3 262/3/3 261/3/3
f 265/3/3 263/3/3 264/3/3
f 267/3/3 263/3/3 265/3/3
f 269/3/3 267/3/3 266/3/3
f 270/3/3 263/3/3 267/3/3
f 270/3/3 267/3/3 269/3/3
f 271/3/3 263/3/3 270/3/3
f 272/3/3 269/3/3 268/3/3
f 272/3/3 270/3/3 269/3/3
f 273/3/3 270/3/3 272/3/3
f 276/3/3 275/3/3 274/3/3
f 277/3/3 275/3/3 276/3/3
f 280/3/3 279/3/3 278/3/3
f 281/3/3 279/3/3 280/3/3
f 284/3/3 283/3/3 282/3/3
f 285/3/3 283/3/3 284/3/3
f 289/3/3 287/3/3 286/3/3
f 290/3/3 287/3/3 289/3/3
f 291/3/3 289/3/3 288/3/3
f 292/3/3 289/3/3 291/3/3
f 295/3/3 294/3/3 293/3/3
f 296/3/3 294/3/3 295/3/3
f 298/3/3 297/3/3 296/3/3
f 299/3/3 297/3/3 298/3/3
f 302/3/3 301/3/3 300/3/3
f 303/3/3 301/3/3 302/3/3
f 306/3/3 305/3/3 304/3/3
f 307/3/3 305/3/3 306/3/3
f 310/3/3 309/3/3 308/3/3
f 311/3/3 309/3/3 310/3/3
f 314/3/3 313/3/3 312/3/3
f 315/3/3 313/3/3 314/3/3
f 318/3/3 317/3/3 316/3/3
f 319/3/3 317/3/3 318/3/3
f 322/3/3 321/3/3 320/3/3
f 323/3/3 321/3/3 322/3/3
f 326/3/3 325/3/3 324/3/3
f 327/3/3 325/3/3 326/3/3
f 328/2/4 329/2/4 330/2/4
f 330/2/4 329/2/4 331/2/4
f 332/2/4 333/2/4 334/2/4
f 334/2/4 333/2/4 335/2/4
f 336/4/4 337/4/4 339/4/4
f 337/3/4 338/3/4 340/3/4
f 339/4/4 337/4/4 340/4/4
f 340/3/4 338/3/4 341/3/4
f 342/3/4 343/3/4 344/3/4
f 344/3/4 343/3/4 345/3/4
f 346/3/4 347/3/4 348/3/4
f 348/3/4 347/3/4 349/3/4
f 350/3/4 351/3/4 352/3/4
f 352/3/4 351/3/4 353/3/4
f 354/3/4 355/3/4 356/3/4
f 356/3/4 355/3/4 357/3/4
f 358/3/4 359/3/4 360/3/4
f 360/3/4 359/3/4 361/3/4
f 362/3/4 363/3/4 364/3/4
f 364/3/4 363/3/4 365/3/4
f 366/3/4 367/3/4 368/3/4
f 368/3/4 367/3/4 369/3/4
f 370/3/4 371/3/4 372/3/4
f 372/3/4 371/3/4 373/3/4
f 374/3/4 375/3/4 376/3/4
f 376/3/4 375/3/4 377/3/4
f 378/3/4 379/3/4 382/3/4
f 382/3/4 379/3/4 383/3/4
f 380/3/4 381/3/4 384/3/4
f 384/3/4 381/3/4 385/3/4
f 386/3/4 387/3/4 389/3/4
f 389/3/4 387/3/4 390/3/4
f 388/3/4 389/3/4 394/3/4
f 389/3/4 390/3/4 394/3/4
f 394/3/4 390/3/4 395/3/4
f 391/3/4 392/3/4 396/3/4
f 396/3/4 392/3/4 397/3/4
f 393/3/4 394/3/4 398/3/4
f 398/3/4 394/3/4 399/3/4
f 395/3/4 390/3/4 400/3/4
f 400/3/4 390/3/4 401/3/4
f 402/3/4 403/3/4 406/3/4
f 406/3/4 403/3/4 407/3/4
f 404/3/4 405/3/4 408/3/4
f 407/3/4 408/3/4 409/3/4
f 408/3/4 405/3/4 410/3/4
f 409/3/4 408/3/4 410/3/4
f 410/3/4 405/3/4 411/3/4
f 410/3/4 411/3/4 412/3/4
f 412/3/4 411/3/4 413/3/4
f 414/3/4 415/3/4 416/3/4
f 416/3/4 415/3/4 417/3/4
f 418/3/4 419/3/4 420/3/4
f 420/3/4 419/3/4 421/3/4
f 422/3/4 423/3/4 424/3/4
f 424/3/4 423/3/4 425/3/4
f 426/3/4 427/3/4 428/3/4
f 428/3/4 427/3/4 429/3/4
f 430/3/4 431/3/4 434/3/4
f 434/3/4 431/3/4 435/3/4
f 432/3/4 433/3/4 436/3/4
f 436/3/4 433/3/4 437/3/4
f 438/2/4 439/2/4 441/2/4
f 441/2/4 439/2/4 442/2/4
f 440/2/4 441/2/4 444/2/4
f 442/2/4 443/2/4 444/2/4
f 441/2/4 442/2/4 444/2/4
f 444/2/4 443/2/4 445/2/4
f 445/2/4 443/2/4 446/2/4
f 446/2/4 443/2/4 447/2/4
f 445/2/4 446/2/4 451/2/4
f 451/2/4 446/2/4 452/2/4
f 447/3/4 448/3/4 453/3/4
f 453/3/4 448/3/4 454/3/4
f 449/3/4 450/3/4 455/3/4
f 455/3/4 450/3/4 456/3/4
f 457/3/4 458/3/4 459/3/4
f 459/3/4 458/3/4 460/3/4
f 461/3/4 462/3/4 464/3/4
f 464/3/4 462/3/4 465/3/4
f 463/3/4 464/3/4 467/3/4
f 464/4/4 465/4/4 468/4/4
f 467/3/4 464/3/4 468/3/4
f 465/3/4 466/3/4 469/3/4
f 468/4/4 465/4/4 469/4/4
f 469/3/4 466/3/4 470/3/4
f 468/3/4 469/3/4 471/3/4
f 471/3/4 469/3/4 472/3/4
f 475/4/5 474/4/5 473/4/5
f 476/4/5 474/4/5 475/4/5
f 481/2/5 478/2/5 477/2/5
f 482/2/5 478/2/5 481/2/5
f 483/2/5 480/2/5 479/2/5
f 484/2/5 480/2/5 483/2/5
f 487/3/5 486/3/5 485/3/5
f 488/3/5 486/3/5 487/3/5
f 491/3/5 490/3/5 489/3/5
f 492/3/5 490/3/5 491/3/5
f 495/3/5 494/3/5 493/3/5
f 496/3/5 494/3/5 495/3/5
f 499/3/5 498/3/5 497/3/5
f 500/3/5 498/3/5 499/3/5
f 505/3/5 502/3/5 501/3/5
f 508/3/5 504/3/5 503/3/5
f 509/3/5 506/3/5 505/3/5
f 510/3/5 508/3/5 507/3/5
f 511/3/5 509/3/5 505/3/5
f 511/3/5 510/3/5 509/3/5
f 512/3/5 508/3/5 510/3/5
f 512/3/5 510/3/5 511/3/5
f 513/3/5 511/3/5 505/3/5
f 514/3/5 508/3/5 512/3/5
f 515/3/5 513/3/5 505/3/5
f 515/3/5 514/3/5 513/3/5
f 516/3/5 508/3/5 514/3/5
f 516/3/5 514/3/5 515/3/5
f 517/3/5 515/3/5 505/3/5
f 518/3/5 508/3/5 516/3/5
f 519/3/5 517/3/5 505/3/5
f 519/3/5 518/3/5 517/3/5
f 519/3/5 505/3/5 501/3/5
f 520/3/5 518/3/5 519/3/5
f 521/3/5 508/3/5 518/3/5
f 521/3/5 518/3/5 520/3/5
f 521/3/5 504/3/5 508/3/5
f 522/3/5 504/3/5 521/3/5
f 523/3/5 521/3/5 520/3/5
f 524/3/5 521/3/5 523/3/5
f 525/3/5 521/3/5 524/3/5
f 526/3/5 521/3/5 525/3/5
f 527/2/5 525/2/5 524/2/5
f 528/2/5 525/2/5 527/2/5
f 533/3/5 530/3/5 529/3/5
f 534/3/5 530/3/5 533/3/5
f 537/3/5 532/3/5 531/3/5
f 538/3/5 532/3/5 537/3/5
f 539/2/5 535/2/5 534/2/5
f 540/2/5 535/2/5 539/2/5
f 541/2/5 537/2/5 536/2/5
f 542/2/5 537/2/5 541/2/5
f 548/3/5 544/3/5 543/3/5
f 549/3/5 544/3/5 548/3/5
f 550/3/5 546/3/5 545/3/5
f 551/3/5 546/3/5 550/3/5
f 553/3/5 548/3/5 547/3/5
f 554/3/5 548/3/5 553/3/5
f 555/3/5 552/3/5 551/3/5
f 556/3/5 552/3/5 555/3/5
f 561/3/5 558/3/5 557/3/5
f 562/3/5 558/3/5 561/3/5
f 563/3/5 560/3/5 559/3/5
f 564/3/5 560/3/5 563/3/5
f 565/3/5 558/3/5 562/3/5
f 566/3/5 558/3/5 565/3/5
f 568/3/5 563/3/5 559/3/5
f 569/3/5 563/3/5 568/3/5
f 570/3/5 568/3/5 567/3/5
f 571/3/5 568/3/5 570/3/5
f 576/3/5 573/3/5 572/3/5
f 577/3/5 573/3/5 576/3/5
f 578/3/5 575/3/5 574/3/5
f 579/3/5 575/3/5 578/3/5
f 584/3/5 581/3/5 580/3/5
f 585/3/5 581/3/5 584/3/5
f 586/3/5 583/3/5 582/3/5
f 587/3/5 583/3/5 586/3/5
f 588/3/6 589/3/6 590/3/6
f 590/3/6 589/3/6 591/3/6
f 592/2/6 593/2/6 596/2/6
f 596/2/6 593/2/6 597/2/6
f 594/2/6 595/2/6 598/2/6
f 598/2/6 595/2/6 599/2/6
f 600/3/6 601/3/6 604/3/6
f 600/3/6 604/3/6 605/3/6
f 600/3/6 605/3/6 606/3/6
f 606/3/6 605/3/6 607/3/6
f 602/3/6 603/3/6 608/3/6
f 608/3/6 603/3/6 609/3/6
f 610/3/6 611/3/6 613/3/6
f 613/3/6 611/3/6 614/3/6
f 612/3/6 613/3/6 616/3/6
f 616/3/6 613/3/6 617/3/6
f 614/3/6 615/3/6 618/3/6
f 618/3/6 615/3/6 619/3/6
f 620/3/6 621/3/6 624/3/6
f 624/3/6 621/3/6 625/3/6
f 622/3/6 623/3/6 628/3/6
f 628/3/6 623/3/6 629/3/6
f 626/3/6 627/3/6 630/3/6
f 630/3/6 627/3/6 631/3/6
f 634/3/6 635/3/6 636/3/6
f 636/3/6 635/3/6 637/3/6
f 632/3/6 633/3/6 638/3/6
f 638/3/6 633/3/6 639/3/6
f 640/3/6 641/3/6 644/3/6
f 644/3/6 641/3/6 645/3/6
f 642/3/6 643/3/6 646/3/6
f 646/3/6 643/3/6 647/3/6
f 648/3/6 649/3/6 651/3/6
f 651/3/6 649/3/6 652/3/6
f 652/3/6 649/3/6 653/3/6
f 653/3/6 649/3/6 654/3/6
f 650/3/6 651/3/6 656/3/6
f 651/3/6 652/3/6 656/3/6
f 656/3/6 652/3/6 657/3/6
f 654/3/6 655/3/6 658/3/6
f 653/3/6 654/3/6 658/3/6
f 658/3/6 655/3/6 659/3/6
f 650/3/6 656/3/6 660/3/6
f 660/3/6 656/3/6 661/3/6
f 659/3/6 655/3/6 662/3/6
f 662/3/6 655/3/6 663/3/6
f 664/3/6 665/3/6 668/3/6
f 666/3/6 667/3/6 671/3/6
f 671/3/6 667/3/6 672/3/6
f 670/3/6 671/3/6 672/3/6
f 672/3/6 667/3/6 673/3/6
f 668/3/6 669/3/6 674/3/6
f 664/3/6 668/3/6 674/3/6
f 674/3/6 669/3/6 675/3/6
f 675/3/6 669/3/6 676/3/6
f 676/3/6 669/3/6 677/3/6
f 670/3/6 672/3/6 678/3/6
f 678/3/6 672/3/6 679/3/6
f 680/3/6 681/3/6 682/3/6
f 682/3/6 681/3/6 683/3/6
f 684/3/6 685/3/6 687/3/6
f 687/3/6 685/3/6 688/3/6
f 686/3/6 687/3/6 691/3/6
f 688/3/6 689/3/6 691/3/6
f 687/3/6 688/3/6 691/3/6
f 691/3/6 689/3/6 692/3/6
f 690/3/6 691/3/6 694/3/6
f 692/3/6 693/3/6 694/3/6
f 691/3/6 692/3/6 694/3/6
f 694/3/6 693/3/6 695/3/6
f 695/3/6 693/3/6 696/3/6
f 696/3/6 693/3/6 697/3/6
f 695/3/6 696/3/6 698/3/6
f 698/3/6 696/3/6 699/3/6
f 699/3/6 696/3/6 700/3/6
f 700/3/6 696/3/6 701/3/6
f 699/3/6 700/3/6 702/3/6
f 702/3/6 700/3/6 703/3/6
