# MagicaVoxel @ Ephtracy

# group
o 

# material
mtllib M1911Barrel.mtl
usemtl palette

# normals
vn -1 0 0
vn 1 0 0
vn 0 0 1
vn 0 0 -1
vn 0 -1 0
vn 0 1 0

# texcoords
vt 0.990234 0.5
vt 0.994141 0.5

# verts
v -0.5 1 1.1
v -0.5 1 0.4
v -0.5 1.1 1.1
v -0.5 1.1 0.4
v -0.4 1 1.2
v -0.4 1 1.1
v -0.4 1.1 1.2
v -0.4 1.1 1.1
v -0.4 1.1 0.4
v -0.4 1.1 0.1
v -0.4 1.2 0.4
v -0.4 1.2 0.1
v -0.4 1.2 -0.9
v -0.4 1.4 0.4
v -0.4 1.4 -0.9
v -0.4 1.5 1.2
v -0.4 1.5 1
v -0.4 1.5 0.7
v -0.4 1.5 0.4
v -0.4 1.6 1
v -0.4 1.6 0.7
v -0.3 1.1 0.1
v -0.3 1.1 -1.1
v -0.3 1.2 0.1
v -0.3 1.2 -0.9
v -0.3 1.2 -1.1
v -0.3 1.2 -1.2
v -0.3 1.4 0.4
v -0.3 1.4 -0.9
v -0.3 1.4 -1.1
v -0.3 1.4 -1.2
v -0.3 1.5 1.1
v -0.3 1.5 1
v -0.3 1.5 0.7
v -0.3 1.5 0.6
v -0.3 1.5 0.4
v -0.3 1.5 -1.1
v -0.3 1.6 1.1
v -0.3 1.6 1
v -0.3 1.6 0.7
v -0.3 1.6 0.6
v -0.2 1 1.3
v -0.2 1 1.2
v -0.2 1.1 1.4
v -0.2 1.1 1.3
v -0.2 1.1 -1.1
v -0.2 1.1 -1.2
v -0.2 1.2 1.4
v -0.2 1.2 1.2
v -0.2 1.2 -1.1
v -0.2 1.2 -1.2
v -0.2 1.4 1.3
v -0.2 1.4 1.2
v -0.2 1.4 -1.1
v -0.2 1.4 -1.2
v -0.2 1.5 1.4
v -0.2 1.5 1.3
v -0.2 1.5 1.2
v -0.2 1.5 1.1
v -0.2 1.5 0.6
v -0.2 1.5 -1.1
v -0.2 1.6 1.4
v -0.2 1.6 1.1
v -0.2 1.6 0.6
v -0.2 1.6 -0.9
v -0.2 1.6 -1.1
v -0.2 1.6 -1.2
v -0.2 1.7 -0.9
v -0.2 1.7 -1.1
v 0 1 1.3
v 0 1 1.2
v 0 1.1 1.4
v 0 1.1 1.3
v 0 1.1 -1.1
v 0 1.1 -1.2
v 0 1.2 1.4
v 0 1.2 1.2
v 0 1.2 -1.1
v 0 1.2 -1.2
v 0 1.4 1.3
v 0 1.4 1.2
v 0 1.4 -1.1
v 0 1.4 -1.2
v 0 1.5 1.4
v 0 1.5 1.3
v 0 1.5 1.2
v 0 1.5 1.1
v 0 1.5 0.6
v 0 1.5 -1.1
v 0 1.6 1.4
v 0 1.6 1.1
v 0 1.6 0.6
v 0 1.6 -0.9
v 0 1.6 -1.1
v 0 1.6 -1.2
v 0 1.7 -0.9
v 0 1.7 -1.1
v 0.1 1.1 0.1
v 0.1 1.1 -1.1
v 0.1 1.2 0.1
v 0.1 1.2 -0.9
v 0.1 1.2 -1.1
v 0.1 1.2 -1.2
v 0.1 1.4 0.5
v 0.1 1.4 -0.9
v 0.1 1.4 -1.1
v 0.1 1.4 -1.2
v 0.1 1.5 1.1
v 0.1 1.5 1
v 0.1 1.5 0.7
v 0.1 1.5 0.6
v 0.1 1.5 0.5
v 0.1 1.5 -1.1
v 0.1 1.6 1.1
v 0.1 1.6 1
v 0.1 1.6 0.7
v 0.1 1.6 0.6
v 0.2 1 1.2
v 0.2 1 1.1
v 0.2 1.1 1.2
v 0.2 1.1 1.1
v 0.2 1.1 0.4
v 0.2 1.1 0.1
v 0.2 1.2 0.4
v 0.2 1.2 0.1
v 0.2 1.2 -0.9
v 0.2 1.4 0.5
v 0.2 1.4 -0.9
v 0.2 1.5 1.2
v 0.2 1.5 1
v 0.2 1.5 0.7
v 0.2 1.5 0.5
v 0.2 1.6 1
v 0.2 1.6 0.7
v 0.3 1 1.1
v 0.3 1 0.4
v 0.3 1.1 1.1
v 0.3 1.1 0.4
v -0.2 1.1 1.4
v -0.2 1.2 1.4
v -0.2 1.5 1.4
v -0.2 1.6 1.4
v 0 1.1 1.4
v 0 1.2 1.4
v 0 1.5 1.4
v 0 1.6 1.4
v -0.2 1 1.3
v -0.2 1.1 1.3
v -0.2 1.4 1.3
v -0.2 1.5 1.3
v 0 1 1.3
v 0 1.1 1.3
v 0 1.4 1.3
v 0 1.5 1.3
v -0.4 1 1.2
v -0.4 1.1 1.2
v -0.4 1.5 1.2
v -0.3 1.1 1.2
v -0.3 1.2 1.2
v -0.2 1 1.2
v -0.2 1.2 1.2
v -0.2 1.4 1.2
v -0.2 1.5 1.2
v 0 1 1.2
v 0 1.2 1.2
v 0 1.4 1.2
v 0 1.5 1.2
v 0.1 1.1 1.2
v 0.1 1.2 1.2
v 0.2 1 1.2
v 0.2 1.1 1.2
v 0.2 1.5 1.2
v -0.5 1 1.1
v -0.5 1.1 1.1
v -0.4 1 1.1
v -0.4 1.1 1.1
v -0.3 1.5 1.1
v -0.3 1.6 1.1
v -0.2 1.5 1.1
v -0.2 1.6 1.1
v 0 1.5 1.1
v 0 1.6 1.1
v 0.1 1.5 1.1
v 0.1 1.6 1.1
v 0.2 1 1.1
v 0.2 1.1 1.1
v 0.3 1 1.1
v 0.3 1.1 1.1
v -0.4 1.5 1
v -0.4 1.6 1
v -0.3 1.5 1
v -0.3 1.6 1
v 0.1 1.5 1
v 0.1 1.6 1
v 0.2 1.5 1
v 0.2 1.6 1
v -0.2 1.6 -0.9
v -0.2 1.7 -0.9
v 0 1.6 -0.9
v 0 1.7 -0.9
v -0.4 1.5 0.7
v -0.4 1.6 0.7
v -0.3 1.5 0.7
v -0.3 1.6 0.7
v 0.1 1.5 0.7
v 0.1 1.6 0.7
v 0.2 1.5 0.7
v 0.2 1.6 0.7
v -0.3 1.5 0.6
v -0.3 1.6 0.6
v -0.2 1.5 0.6
v -0.2 1.6 0.6
v 0 1.5 0.6
v 0 1.6 0.6
v 0.1 1.5 0.6
v 0.1 1.6 0.6
v 0.1 1.4 0.5
v 0.1 1.5 0.5
v 0.2 1.4 0.5
v 0.2 1.5 0.5
v -0.5 1 0.4
v -0.5 1.1 0.4
v -0.4 1 0.4
v -0.4 1.1 0.4
v -0.4 1.4 0.4
v -0.4 1.5 0.4
v -0.3 1.1 0.4
v -0.3 1.4 0.4
v -0.3 1.5 0.4
v 0.1 1.1 0.4
v 0.2 1 0.4
v 0.2 1.1 0.4
v 0.3 1 0.4
v 0.3 1.1 0.4
v -0.4 1.1 0.1
v -0.4 1.2 0.1
v -0.3 1.1 0.1
v -0.3 1.2 0.1
v 0.1 1.1 0.1
v 0.1 1.2 0.1
v 0.2 1.1 0.1
v 0.2 1.2 0.1
v -0.4 1.2 -0.9
v -0.4 1.4 -0.9
v -0.3 1.2 -0.9
v -0.3 1.4 -0.9
v 0.1 1.2 -0.9
v 0.1 1.4 -0.9
v 0.2 1.2 -0.9
v 0.2 1.4 -0.9
v -0.3 1.1 -1.1
v -0.3 1.2 -1.1
v -0.3 1.4 -1.1
v -0.3 1.5 -1.1
v -0.2 1.1 -1.1
v -0.2 1.2 -1.1
v -0.2 1.4 -1.1
v -0.2 1.5 -1.1
v -0.2 1.6 -1.1
v -0.2 1.7 -1.1
v 0 1.1 -1.1
v 0 1.2 -1.1
v 0 1.4 -1.1
v 0 1.5 -1.1
v 0 1.6 -1.1
v 0 1.7 -1.1
v 0.1 1.1 -1.1
v 0.1 1.2 -1.1
v 0.1 1.4 -1.1
v 0.1 1.5 -1.1
v -0.3 1.2 -1.2
v -0.3 1.4 -1.2
v -0.2 1.1 -1.2
v -0.2 1.2 -1.2
v -0.2 1.4 -1.2
v -0.2 1.6 -1.2
v 0 1.1 -1.2
v 0 1.2 -1.2
v 0 1.4 -1.2
v 0 1.6 -1.2
v 0.1 1.2 -1.2
v 0.1 1.4 -1.2
v -0.2 1 1.3
v 0 1 1.3
v -0.4 1 1.2
v -0.2 1 1.2
v 0 1 1.2
v 0.2 1 1.2
v -0.5 1 1.1
v -0.4 1 1.1
v -0.2 1 1.1
v 0 1 1.1
v 0.2 1 1.1
v 0.3 1 1.1
v -0.5 1 0.4
v -0.4 1 0.4
v 0.2 1 0.4
v 0.3 1 0.4
v -0.2 1.1 1.4
v 0 1.1 1.4
v -0.2 1.1 1.3
v 0 1.1 1.3
v -0.4 1.1 0.4
v -0.3 1.1 0.4
v 0.1 1.1 0.4
v 0.2 1.1 0.4
v -0.4 1.1 0.1
v -0.3 1.1 0.1
v 0.1 1.1 0.1
v 0.2 1.1 0.1
v -0.3 1.1 -1.1
v -0.2 1.1 -1.1
v 0 1.1 -1.1
v 0.1 1.1 -1.1
v -0.2 1.1 -1.2
v 0 1.1 -1.2
v -0.4 1.2 0.1
v -0.3 1.2 0.1
v 0.1 1.2 0.1
v 0.2 1.2 0.1
v -0.4 1.2 -0.9
v -0.3 1.2 -0.9
v 0.1 1.2 -0.9
v 0.2 1.2 -0.9
v -0.3 1.2 -1.1
v -0.2 1.2 -1.1
v 0 1.2 -1.1
v 0.1 1.2 -1.1
v -0.3 1.2 -1.2
v -0.2 1.2 -1.2
v 0 1.2 -1.2
v 0.1 1.2 -1.2
v -0.2 1.4 1.3
v 0 1.4 1.3
v -0.2 1.4 1.2
v 0 1.4 1.2
v -0.2 1.5 1.4
v 0 1.5 1.4
v -0.2 1.5 1.3
v 0 1.5 1.3
v -0.5 1.1 1.1
v -0.4 1.1 1.1
v 0.2 1.1 1.1
v 0.3 1.1 1.1
v -0.5 1.1 0.4
v -0.4 1.1 0.4
v 0.2 1.1 0.4
v 0.3 1.1 0.4
v -0.2 1.2 1.4
v 0 1.2 1.4
v -0.2 1.2 1.2
v 0 1.2 1.2
v 0.1 1.4 0.5
v 0.2 1.4 0.5
v -0.4 1.4 0.4
v -0.3 1.4 0.4
v -0.4 1.4 -0.9
v -0.3 1.4 -0.9
v 0.1 1.4 -0.9
v 0.2 1.4 -0.9
v -0.3 1.4 -1.1
v -0.2 1.4 -1.1
v 0 1.4 -1.1
v 0.1 1.4 -1.1
v -0.3 1.4 -1.2
v -0.2 1.4 -1.2
v 0 1.4 -1.2
v 0.1 1.4 -1.2
v -0.4 1.5 1.2
v -0.2 1.5 1.2
v 0 1.5 1.2
v 0.2 1.5 1.2
v -0.3 1.5 1.1
v -0.2 1.5 1.1
v 0 1.5 1.1
v 0.1 1.5 1.1
v -0.4 1.5 1
v -0.3 1.5 1
v 0.1 1.5 1
v 0.2 1.5 1
v -0.4 1.5 0.7
v -0.3 1.5 0.7
v 0.1 1.5 0.7
v 0.2 1.5 0.7
v -0.3 1.5 0.6
v -0.2 1.5 0.6
v 0 1.5 0.6
v 0.1 1.5 0.6
v 0.1 1.5 0.5
v 0.2 1.5 0.5
v -0.4 1.5 0.4
v -0.3 1.5 0.4
v -0.3 1.5 -1.1
v -0.2 1.5 -1.1
v 0 1.5 -1.1
v 0.1 1.5 -1.1
v -0.2 1.6 1.4
v 0 1.6 1.4
v -0.3 1.6 1.1
v -0.2 1.6 1.1
v 0 1.6 1.1
v 0.1 1.6 1.1
v -0.4 1.6 1
v -0.3 1.6 1
v 0.1 1.6 1
v 0.2 1.6 1
v -0.4 1.6 0.7
v -0.3 1.6 0.7
v 0.1 1.6 0.7
v 0.2 1.6 0.7
v -0.3 1.6 0.6
v -0.2 1.6 0.6
v 0 1.6 0.6
v 0.1 1.6 0.6
v -0.2 1.6 -0.9
v 0 1.6 -0.9
v -0.2 1.6 -1.1
v 0 1.6 -1.1
v -0.2 1.6 -1.2
v 0 1.6 -1.2
v -0.2 1.7 -0.9
v 0 1.7 -0.9
v -0.2 1.7 -1.1
v 0 1.7 -1.1

# faces
f 3/2/1 2/2/1 1/2/1
f 4/2/1 2/2/1 3/2/1
f 7/2/1 6/2/1 5/2/1
f 8/2/1 6/2/1 7/2/1
f 11/1/1 8/1/1 7/1/1
f 11/2/1 10/2/1 9/2/1
f 11/1/1 9/1/1 8/1/1
f 12/2/1 10/2/1 11/2/1
f 14/1/1 11/1/1 7/1/1
f 14/1/1 13/1/1 12/1/1
f 14/1/1 12/1/1 11/1/1
f 15/1/1 13/1/1 14/1/1
f 16/1/1 14/1/1 7/1/1
f 17/1/1 14/1/1 16/1/1
f 18/1/1 14/1/1 17/1/1
f 19/1/1 14/1/1 18/1/1
f 20/1/1 18/1/1 17/1/1
f 21/1/1 18/1/1 20/1/1
f 24/1/1 23/1/1 22/1/1
f 25/1/1 23/1/1 24/1/1
f 26/1/1 23/1/1 25/1/1
f 29/1/1 27/1/1 26/1/1
f 29/1/1 26/1/1 25/1/1
f 30/1/1 27/1/1 29/1/1
f 31/1/1 27/1/1 30/1/1
f 36/1/1 29/1/1 28/1/1
f 36/1/1 30/1/1 29/1/1
f 37/1/1 30/1/1 36/1/1
f 38/1/1 33/1/1 32/1/1
f 39/1/1 33/1/1 38/1/1
f 40/1/1 35/1/1 34/1/1
f 41/1/1 35/1/1 40/1/1
f 45/2/1 43/2/1 42/2/1
f 48/2/1 45/2/1 44/2/1
f 49/2/1 43/2/1 45/2/1
f 49/2/1 45/2/1 48/2/1
f 50/1/1 47/1/1 46/1/1
f 51/1/1 47/1/1 50/1/1
f 57/2/1 53/2/1 52/2/1
f 58/2/1 53/2/1 57/2/1
f 61/1/1 55/1/1 54/1/1
f 62/2/1 59/2/1 58/2/1
f 62/2/1 57/2/1 56/2/1
f 62/2/1 58/2/1 57/2/1
f 63/2/1 59/2/1 62/2/1
f 64/1/1 61/1/1 60/1/1
f 65/1/1 61/1/1 64/1/1
f 66/1/1 55/1/1 61/1/1
f 66/1/1 61/1/1 65/1/1
f 67/1/1 55/1/1 66/1/1
f 68/2/1 66/2/1 65/2/1
f 69/2/1 66/2/1 68/2/1
f 70/2/2 71/2/2 73/2/2
f 72/2/2 73/2/2 76/2/2
f 73/2/2 71/2/2 77/2/2
f 76/2/2 73/2/2 77/2/2
f 74/1/2 75/1/2 78/1/2
f 78/1/2 75/1/2 79/1/2
f 80/2/2 81/2/2 85/2/2
f 85/2/2 81/2/2 86/2/2
f 82/1/2 83/1/2 89/1/2
f 86/2/2 87/2/2 90/2/2
f 84/2/2 85/2/2 90/2/2
f 85/2/2 86/2/2 90/2/2
f 90/2/2 87/2/2 91/2/2
f 88/1/2 89/1/2 92/1/2
f 92/1/2 89/1/2 93/1/2
f 89/1/2 83/1/2 94/1/2
f 93/1/2 89/1/2 94/1/2
f 94/1/2 83/1/2 95/1/2
f 93/2/2 94/2/2 96/2/2
f 96/2/2 94/2/2 97/2/2
f 98/1/2 99/1/2 100/1/2
f 100/1/2 99/1/2 101/1/2
f 101/1/2 99/1/2 102/1/2
f 102/1/2 103/1/2 105/1/2
f 101/1/2 102/1/2 105/1/2
f 105/1/2 103/1/2 106/1/2
f 106/1/2 103/1/2 107/1/2
f 104/1/2 105/1/2 112/1/2
f 105/1/2 106/1/2 112/1/2
f 112/1/2 106/1/2 113/1/2
f 108/1/2 109/1/2 114/1/2
f 114/1/2 109/1/2 115/1/2
f 110/1/2 111/1/2 116/1/2
f 116/1/2 111/1/2 117/1/2
f 118/2/2 119/2/2 120/2/2
f 120/2/2 119/2/2 121/2/2
f 120/1/2 121/1/2 124/1/2
f 122/2/2 123/2/2 124/2/2
f 121/1/2 122/1/2 124/1/2
f 124/2/2 123/2/2 125/2/2
f 120/1/2 124/1/2 127/1/2
f 125/1/2 126/1/2 127/1/2
f 124/1/2 125/1/2 127/1/2
f 127/1/2 126/1/2 128/1/2
f 120/1/2 127/1/2 129/1/2
f 129/1/2 127/1/2 130/1/2
f 130/1/2 127/1/2 131/1/2
f 131/1/2 127/1/2 132/1/2
f 130/1/2 131/1/2 133/1/2
f 133/1/2 131/1/2 134/1/2
f 135/2/2 136/2/2 137/2/2
f 137/2/2 136/2/2 138/2/2
f 143/2/3 140/2/3 139/2/3
f 144/2/3 140/2/3 143/2/3
f 145/2/3 142/2/3 141/2/3
f 146/2/3 142/2/3 145/2/3
f 151/2/3 148/2/3 147/2/3
f 152/2/3 148/2/3 151/2/3
f 153/2/3 150/2/3 149/2/3
f 154/2/3 150/2/3 153/2/3
f 158/2/3 156/2/3 155/2/3
f 158/1/3 157/1/3 156/1/3
f 159/1/3 157/1/3 158/1/3
f 160/2/3 158/2/3 155/2/3
f 160/2/3 159/2/3 158/2/3
f 161/1/3 157/1/3 159/1/3
f 161/2/3 159/2/3 160/2/3
f 162/1/3 157/1/3 161/1/3
f 163/1/3 157/1/3 162/1/3
f 165/1/3 162/1/3 161/1/3
f 166/1/3 162/1/3 165/1/3
f 168/2/3 165/2/3 164/2/3
f 169/1/3 167/1/3 166/1/3
f 169/2/3 165/2/3 168/2/3
f 169/1/3 166/1/3 165/1/3
f 170/2/3 168/2/3 164/2/3
f 171/1/3 169/1/3 168/1/3
f 171/2/3 168/2/3 170/2/3
f 172/1/3 167/1/3 169/1/3
f 172/1/3 169/1/3 171/1/3
f 175/2/3 174/2/3 173/2/3
f 176/2/3 174/2/3 175/2/3
f 179/1/3 178/1/3 177/1/3
f 180/1/3 178/1/3 179/1/3
f 183/1/3 182/1/3 181/1/3
f 184/1/3 182/1/3 183/1/3
f 187/2/3 186/2/3 185/2/3
f 188/2/3 186/2/3 187/2/3
f 191/1/3 190/1/3 189/1/3
f 192/1/3 190/1/3 191/1/3
f 195/1/3 194/1/3 193/1/3
f 196/1/3 194/1/3 195/1/3
f 199/2/3 198/2/3 197/2/3
f 200/2/3 198/2/3 199/2/3
f 201/1/4 202/1/4 203/1/4
f 203/1/4 202/1/4 204/1/4
f 205/1/4 206/1/4 207/1/4
f 207/1/4 206/1/4 208/1/4
f 209/1/4 210/1/4 211/1/4
f 211/1/4 210/1/4 212/1/4
f 213/1/4 214/1/4 215/1/4
f 215/1/4 214/1/4 216/1/4
f 217/1/4 218/1/4 219/1/4
f 219/1/4 218/1/4 220/1/4
f 221/2/4 222/2/4 223/2/4
f 223/2/4 222/2/4 224/2/4
f 223/1/4 224/1/4 227/1/4
f 225/1/4 226/1/4 228/1/4
f 228/1/4 226/1/4 229/1/4
f 223/1/4 227/1/4 230/1/4
f 223/1/4 230/1/4 231/1/4
f 231/1/4 230/1/4 232/1/4
f 231/2/4 232/2/4 233/2/4
f 233/2/4 232/2/4 234/2/4
f 235/2/4 236/2/4 237/2/4
f 237/2/4 236/2/4 238/2/4
f 239/2/4 240/2/4 241/2/4
f 241/2/4 240/2/4 242/2/4
f 243/1/4 244/1/4 245/1/4
f 245/1/4 244/1/4 246/1/4
f 247/1/4 248/1/4 249/1/4
f 249/1/4 248/1/4 250/1/4
f 251/1/4 252/1/4 255/1/4
f 255/1/4 252/1/4 256/1/4
f 253/1/4 254/1/4 257/1/4
f 257/1/4 254/1/4 258/1/4
f 259/2/4 260/2/4 265/2/4
f 265/2/4 260/2/4 266/2/4
f 261/1/4 262/1/4 267/1/4
f 267/1/4 262/1/4 268/1/4
f 263/1/4 264/1/4 269/1/4
f 269/1/4 264/1/4 270/1/4
f 271/1/4 272/1/4 274/1/4
f 274/1/4 272/1/4 275/1/4
f 273/1/4 274/1/4 277/1/4
f 274/2/4 275/2/4 278/2/4
f 277/1/4 274/1/4 278/1/4
f 275/1/4 276/1/4 279/1/4
f 278/2/4 275/2/4 279/2/4
f 279/1/4 276/1/4 280/1/4
f 278/1/4 279/1/4 281/1/4
f 281/1/4 279/1/4 282/1/4
f 286/2/5 284/2/5 283/2/5
f 287/2/5 284/2/5 286/2/5
f 290/2/5 286/2/5 285/2/5
f 291/1/5 287/1/5 286/1/5
f 291/2/5 286/2/5 290/2/5
f 292/2/5 288/2/5 287/2/5
f 292/1/5 287/1/5 291/1/5
f 293/2/5 288/2/5 292/2/5
f 295/2/5 290/2/5 289/2/5
f 296/1/5 291/1/5 290/1/5
f 296/2/5 290/2/5 295/2/5
f 296/1/5 292/1/5 291/1/5
f 296/1/5 293/1/5 292/1/5
f 297/2/5 294/2/5 293/2/5
f 297/1/5 293/1/5 296/1/5
f 298/2/5 294/2/5 297/2/5
f 301/2/5 300/2/5 299/2/5
f 302/2/5 300/2/5 301/2/5
f 307/2/5 304/2/5 303/2/5
f 308/1/5 305/1/5 304/1/5
f 308/2/5 304/2/5 307/2/5
f 309/2/5 306/2/5 305/2/5
f 309/1/5 305/1/5 308/1/5
f 310/2/5 306/2/5 309/2/5
f 311/1/5 309/1/5 308/1/5
f 312/1/5 309/1/5 311/1/5
f 313/1/5 309/1/5 312/1/5
f 314/1/5 309/1/5 313/1/5
f 315/1/5 313/1/5 312/1/5
f 316/1/5 313/1/5 315/1/5
f 321/1/5 318/1/5 317/1/5
f 322/1/5 318/1/5 321/1/5
f 323/1/5 320/1/5 319/1/5
f 324/1/5 320/1/5 323/1/5
f 329/1/5 326/1/5 325/1/5
f 330/1/5 326/1/5 329/1/5
f 331/1/5 328/1/5 327/1/5
f 332/1/5 328/1/5 331/1/5
f 335/2/5 334/2/5 333/2/5
f 336/2/5 334/2/5 335/2/5
f 339/2/5 338/2/5 337/2/5
f 340/2/5 338/2/5 339/2/5
f 341/2/6 342/2/6 345/2/6
f 345/2/6 342/2/6 346/2/6
f 343/2/6 344/2/6 347/2/6
f 347/2/6 344/2/6 348/2/6
f 349/2/6 350/2/6 351/2/6
f 351/2/6 350/2/6 352/2/6
f 355/1/6 356/1/6 357/1/6
f 357/1/6 356/1/6 358/1/6
f 353/1/6 354/1/6 359/1/6
f 359/1/6 354/1/6 360/1/6
f 361/1/6 362/1/6 365/1/6
f 365/1/6 362/1/6 366/1/6
f 363/1/6 364/1/6 367/1/6
f 367/1/6 364/1/6 368/1/6
f 369/1/6 370/1/6 373/1/6
f 373/1/6 370/1/6 374/1/6
f 371/1/6 372/1/6 375/1/6
f 375/1/6 372/1/6 376/1/6
f 369/1/6 373/1/6 377/1/6
f 377/1/6 373/1/6 378/1/6
f 376/1/6 372/1/6 379/1/6
f 379/1/6 372/1/6 380/1/6
f 381/1/6 382/1/6 385/1/6
f 383/1/6 384/1/6 388/1/6
f 388/1/6 384/1/6 389/1/6
f 387/1/6 388/1/6 389/1/6
f 389/1/6 384/1/6 390/1/6
f 385/1/6 386/1/6 391/1/6
f 381/1/6 385/1/6 391/1/6
f 391/1/6 386/1/6 392/1/6
f 392/1/6 386/1/6 393/1/6
f 393/1/6 386/1/6 394/1/6
f 387/1/6 389/1/6 395/1/6
f 395/1/6 389/1/6 396/1/6
f 397/2/6 398/2/6 400/2/6
f 400/2/6 398/2/6 401/2/6
f 399/1/6 400/1/6 404/1/6
f 401/1/6 402/1/6 404/1/6
f 400/1/6 401/1/6 404/1/6
f 404/1/6 402/1/6 405/1/6
f 403/1/6 404/1/6 407/1/6
f 405/1/6 406/1/6 407/1/6
f 404/1/6 405/1/6 407/1/6
f 407/1/6 406/1/6 408/1/6
f 408/1/6 406/1/6 409/1/6
f 409/1/6 406/1/6 410/1/6
f 408/1/6 409/1/6 411/1/6
f 411/1/6 409/1/6 412/1/6
f 412/1/6 409/1/6 413/1/6
f 413/1/6 409/1/6 414/1/6
f 412/1/6 413/1/6 415/1/6
f 415/1/6 413/1/6 416/1/6
f 417/1/6 418/1/6 419/1/6
f 419/1/6 418/1/6 420/1/6
f 421/2/6 422/2/6 423/2/6
f 423/2/6 422/2/6 424/2/6
